<mxfile host="65bd71144e">
    <diagram id="g8z5keXmkFaxCOHoxkpC" name="Navigation Process">
        <mxGraphModel dx="1480" dy="1147" grid="0" gridSize="10" guides="1" tooltips="1" connect="1" arrows="1" fold="1" page="1" pageScale="1" pageWidth="850" pageHeight="1100" math="0" shadow="0">
            <root>
                <mxCell id="0"/>
                <mxCell id="1" parent="0"/>
                <mxCell id="2" value="&lt;table style=&quot;box-sizing: border-box; border: 1px solid var(--color-hairline); border-collapse: collapse; margin-left: auto; margin-right: auto; overflow-x: scroll; min-width: 32rem; color: rgb(32, 33, 36); font-family: system-ui, -apple-system, BlinkMacSystemFont, &amp;quot;Segoe UI&amp;quot;, Roboto, Oxygen, Ubuntu, Cantarell, &amp;quot;Open Sans&amp;quot;, &amp;quot;Helvetica Neue&amp;quot;, sans-serif; font-size: 16px; font-style: normal; font-variant-ligatures: normal; font-variant-caps: normal; font-weight: 400; letter-spacing: normal; orphans: 2; text-align: start; text-transform: none; widows: 2; word-spacing: 0px; -webkit-text-stroke-width: 0px; background-color: rgb(255, 255, 255); text-decoration-thickness: initial; text-decoration-style: initial; text-decoration-color: initial;&quot; class=&quot;responsive&quot;&gt;&lt;tbody style=&quot;box-sizing: border-box;&quot;&gt;&lt;tr style=&quot;box-sizing: border-box; border-bottom: 1px solid var(--color-hairline);&quot;&gt;&lt;th style=&quot;box-sizing: border-box; font-weight: 500; padding: 1rem;&quot; colspan=&quot;2&quot;&gt;Process and What it controls&lt;/th&gt;&lt;/tr&gt;&lt;tr style=&quot;box-sizing: border-box; border-bottom: 1px solid var(--color-hairline);&quot;&gt;&lt;td style=&quot;box-sizing: border-box; padding: 1rem;&quot;&gt;Browser&lt;/td&gt;&lt;td style=&quot;box-sizing: border-box; padding: 1rem;&quot;&gt;Controls &quot;chrome&quot; part of the application including address bar, bookmarks, back and forward buttons.&lt;br style=&quot;box-sizing: border-box;&quot;&gt;Also handles the invisible, privileged parts of a web browser such as network requests and file access.&lt;/td&gt;&lt;/tr&gt;&lt;tr style=&quot;box-sizing: border-box; border-bottom: 1px solid var(--color-hairline);&quot;&gt;&lt;td style=&quot;box-sizing: border-box; padding: 1rem;&quot;&gt;Renderer&lt;/td&gt;&lt;td style=&quot;box-sizing: border-box; padding: 1rem;&quot;&gt;Controls anything inside of the tab where a website is displayed.&lt;/td&gt;&lt;/tr&gt;&lt;tr style=&quot;box-sizing: border-box; border-bottom: 1px solid var(--color-hairline);&quot;&gt;&lt;td style=&quot;box-sizing: border-box; padding: 1rem;&quot;&gt;Plugin&lt;/td&gt;&lt;td style=&quot;box-sizing: border-box; padding: 1rem;&quot;&gt;Controls any plugins used by the website, for example, flash.&lt;/td&gt;&lt;/tr&gt;&lt;tr style=&quot;box-sizing: border-box;&quot;&gt;&lt;td style=&quot;box-sizing: border-box; padding: 1rem;&quot;&gt;GPU&lt;/td&gt;&lt;td style=&quot;box-sizing: border-box; padding: 1rem;&quot;&gt;Handles GPU tasks in isolation from other processes. It is separated into different process because GPUs handles requests from multiple apps and draw them in the same surface.&lt;/td&gt;&lt;/tr&gt;&lt;/tbody&gt;&lt;/table&gt;" style="text;whiteSpace=wrap;html=1;" parent="1" vertex="1">
                    <mxGeometry x="60" y="30" width="560" height="400" as="geometry"/>
                </mxCell>
                <mxCell id="3" value="" style="shape=image;verticalLabelPosition=bottom;labelBackgroundColor=default;verticalAlign=top;aspect=fixed;imageAspect=0;image=data:image/avif,AAAAIGZ0eXBhdmlmAAAAAGF2aWZtaWYxbWlhZk1BMUIAAA1HbWV0YQAAAAAAAAAoaGRscgAAAAAAAAAAcGljdAAAAAAAAAAAAAAAAGxpYmF2aWYAAAAADnBpdG0AAAAAAAEAAAAeaWxvYwAAAABEAAABAAEAAAABAAANbwAAYGAAAAAoaWluZgAAAAAAAQAAABppbmZlAgAAAAABAABhdjAxQ29sb3IAAAAMv2lwcnAAAAyfaXBjbwAAABRpc3BlAAAAAAAAA8QAAAHrAAAAEHBpeGkAAAAAAwgICAAAAAxhdjFDgQQMAAAADFRjb2xycHJvZgAADEhMaW5vAhAAAG1udHJSR0IgWFlaIAfOAAIACQAGADEAAGFjc3BNU0ZUAAAAAElFQyBzUkdCAAAAAAAAAAAAAAAAAAD21gABAAAAANMtSFAgIAAAAAAAAAAAAAAAAAAAAAAAAAAAAAAAAAAAAAAAAAAAAAAAAAAAAAAAAAAAAAAAEWNwcnQAAAFQAAAAM2Rlc2MAAAGEAAAAbHd0cHQAAAHwAAAAFGJrcHQAAAIEAAAAFHJYWVoAAAIYAAAAFGdYWVoAAAIsAAAAFGJYWVoAAAJAAAAAFGRtbmQAAAJUAAAAcGRtZGQAAALEAAAAiHZ1ZWQAAANMAAAAhnZpZXcAAAPUAAAAJGx1bWkAAAP4AAAAFG1lYXMAAAQMAAAAJHRlY2gAAAQwAAAADHJUUkMAAAQ8AAAIDGdUUkMAAAQ8AAAIDGJUUkMAAAQ8AAAIDHRleHQAAAAAQ29weXJpZ2h0IChjKSAxOTk4IEhld2xldHQtUGFja2FyZCBDb21wYW55AABkZXNjAAAAAAAAABJzUkdCIElFQzYxOTY2LTIuMQAAAAAAAAAAAAAAEnNSR0IgSUVDNjE5NjYtMi4xAAAAAAAAAAAAAAAAAAAAAAAAAAAAAAAAAAAAAAAAAAAAAAAAAAAAAAAAAAAAAAAAAABYWVogAAAAAAAA81EAAQAAAAEWzFhZWiAAAAAAAAAAAAAAAAAAAAAAWFlaIAAAAAAAAG+iAAA49QAAA5BYWVogAAAAAAAAYpkAALeFAAAY2lhZWiAAAAAAAAAkoAAAD4QAALbPZGVzYwAAAAAAAAAWSUVDIGh0dHA6Ly93d3cuaWVjLmNoAAAAAAAAAAAAAAAWSUVDIGh0dHA6Ly93d3cuaWVjLmNoAAAAAAAAAAAAAAAAAAAAAAAAAAAAAAAAAAAAAAAAAAAAAAAAAAAAAAAAAAAAAGRlc2MAAAAAAAAALklFQyA2MTk2Ni0yLjEgRGVmYXVsdCBSR0IgY29sb3VyIHNwYWNlIC0gc1JHQgAAAAAAAAAAAAAALklFQyA2MTk2Ni0yLjEgRGVmYXVsdCBSR0IgY29sb3VyIHNwYWNlIC0gc1JHQgAAAAAAAAAAAAAAAAAAAAAAAAAAAABkZXNjAAAAAAAAACxSZWZlcmVuY2UgVmlld2luZyBDb25kaXRpb24gaW4gSUVDNjE5NjYtMi4xAAAAAAAAAAAAAAAsUmVmZXJlbmNlIFZpZXdpbmcgQ29uZGl0aW9uIGluIElFQzYxOTY2LTIuMQAAAAAAAAAAAAAAAAAAAAAAAAAAAAAAAAAAdmlldwAAAAAAE6T+ABRfLgAQzxQAA+3MAAQTCwADXJ4AAAABWFlaIAAAAAAATAlWAFAAAABXH+dtZWFzAAAAAAAAAAEAAAAAAAAAAAAAAAAAAAAAAAACjwAAAAJzaWcgAAAAAENSVCBjdXJ2AAAAAAAABAAAAAAFAAoADwAUABkAHgAjACgALQAyADcAOwBAAEUASgBPAFQAWQBeAGMAaABtAHIAdwB8AIEAhgCLAJAAlQCaAJ8ApACpAK4AsgC3ALwAwQDGAMsA0ADVANsA4ADlAOsA8AD2APsBAQEHAQ0BEwEZAR8BJQErATIBOAE+AUUBTAFSAVkBYAFnAW4BdQF8AYMBiwGSAZoBoQGpAbEBuQHBAckB0QHZAeEB6QHyAfoCAwIMAhQCHQImAi8COAJBAksCVAJdAmcCcQJ6AoQCjgKYAqICrAK2AsECywLVAuAC6wL1AwADCwMWAyEDLQM4A0MDTwNaA2YDcgN+A4oDlgOiA64DugPHA9MD4APsA/kEBgQTBCAELQQ7BEgEVQRjBHEEfgSMBJoEqAS2BMQE0wThBPAE/gUNBRwFKwU6BUkFWAVnBXcFhgWWBaYFtQXFBdUF5QX2BgYGFgYnBjcGSAZZBmoGewaMBp0GrwbABtEG4wb1BwcHGQcrBz0HTwdhB3QHhgeZB6wHvwfSB+UH+AgLCB8IMghGCFoIbgiCCJYIqgi+CNII5wj7CRAJJQk6CU8JZAl5CY8JpAm6Cc8J5Qn7ChEKJwo9ClQKagqBCpgKrgrFCtwK8wsLCyILOQtRC2kLgAuYC7ALyAvhC/kMEgwqDEMMXAx1DI4MpwzADNkM8w0NDSYNQA1aDXQNjg2pDcMN3g34DhMOLg5JDmQOfw6bDrYO0g7uDwkPJQ9BD14Peg+WD7MPzw/sEAkQJhBDEGEQfhCbELkQ1xD1ERMRMRFPEW0RjBGqEckR6BIHEiYSRRJkEoQSoxLDEuMTAxMjE0MTYxODE6QTxRPlFAYUJxRJFGoUixStFM4U8BUSFTQVVhV4FZsVvRXgFgMWJhZJFmwWjxayFtYW+hcdF0EXZReJF64X0hf3GBsYQBhlGIoYrxjVGPoZIBlFGWsZkRm3Gd0aBBoqGlEadxqeGsUa7BsUGzsbYxuKG7Ib2hwCHCocUhx7HKMczBz1HR4dRx1wHZkdwx3sHhYeQB5qHpQevh7pHxMfPh9pH5Qfvx/qIBUgQSBsIJggxCDwIRwhSCF1IaEhziH7IiciVSKCIq8i3SMKIzgjZiOUI8Ij8CQfJE0kfCSrJNolCSU4JWgllyXHJfcmJyZXJocmtyboJxgnSSd6J6sn3CgNKD8ocSiiKNQpBik4KWspnSnQKgIqNSpoKpsqzysCKzYraSudK9EsBSw5LG4soizXLQwtQS12Last4S4WLkwugi63Lu4vJC9aL5Evxy/+MDUwbDCkMNsxEjFKMYIxujHyMioyYzKbMtQzDTNGM38zuDPxNCs0ZTSeNNg1EzVNNYc1wjX9Njc2cjauNuk3JDdgN5w31zgUOFA4jDjIOQU5Qjl/Obw5+To2OnQ6sjrvOy07azuqO+g8JzxlPKQ84z0iPWE9oT3gPiA+YD6gPuA/IT9hP6I/4kAjQGRApkDnQSlBakGsQe5CMEJyQrVC90M6Q31DwEQDREdEikTORRJFVUWaRd5GIkZnRqtG8Ec1R3tHwEgFSEtIkUjXSR1JY0mpSfBKN0p9SsRLDEtTS5pL4kwqTHJMuk0CTUpNk03cTiVObk63TwBPSU+TT91QJ1BxULtRBlFQUZtR5lIxUnxSx1MTU19TqlP2VEJUj1TbVShVdVXCVg9WXFapVvdXRFeSV+BYL1h9WMtZGllpWbhaB1pWWqZa9VtFW5Vb5Vw1XIZc1l0nXXhdyV4aXmxevV8PX2Ffs2AFYFdgqmD8YU9homH1YklinGLwY0Njl2PrZEBklGTpZT1lkmXnZj1mkmboZz1nk2fpaD9olmjsaUNpmmnxakhqn2r3a09rp2v/bFdsr20IbWBtuW4SbmtuxG8eb3hv0XArcIZw4HE6cZVx8HJLcqZzAXNdc7h0FHRwdMx1KHWFdeF2Pnabdvh3VnezeBF4bnjMeSp5iXnnekZ6pXsEe2N7wnwhfIF84X1BfaF+AX5ifsJ/I3+Ef+WAR4CogQqBa4HNgjCCkoL0g1eDuoQdhICE44VHhauGDoZyhteHO4efiASIaYjOiTOJmYn+imSKyoswi5aL/IxjjMqNMY2Yjf+OZo7OjzaPnpAGkG6Q1pE/kaiSEZJ6kuOTTZO2lCCUipT0lV+VyZY0lp+XCpd1l+CYTJi4mSSZkJn8mmia1ZtCm6+cHJyJnPedZJ3SnkCerp8dn4uf+qBpoNihR6G2oiailqMGo3aj5qRWpMelOKWpphqmi6b9p26n4KhSqMSpN6mpqhyqj6sCq3Wr6axcrNCtRK24ri2uoa8Wr4uwALB1sOqxYLHWskuywrM4s660JbSctRO1irYBtnm28Ldot+C4WbjRuUq5wro7urW7LrunvCG8m70VvY++Cr6Evv+/er/1wHDA7MFnwePCX8Lbw1jD1MRRxM7FS8XIxkbGw8dBx7/IPci8yTrJuco4yrfLNsu2zDXMtc01zbXONs62zzfPuNA50LrRPNG+0j/SwdNE08bUSdTL1U7V0dZV1tjXXNfg2GTY6Nls2fHadtr724DcBdyK3RDdlt4c3qLfKd+v4DbgveFE4cziU+Lb42Pj6+Rz5PzlhOYN5pbnH+ep6DLovOlG6dDqW+rl63Dr++yG7RHtnO4o7rTvQO/M8Fjw5fFy8f/yjPMZ86f0NPTC9VD13vZt9vv3ivgZ+Kj5OPnH+lf65/t3/Af8mP0p/br+S/7c/23//wAAABNjb2xybmNseAABAA0ABoAAAAAYaXBtYQAAAAAAAAABAAEFAQKDBAUAAGBobWRhdBIACgoZJjw/VwQENBoQMs7AARDwAMMMMUD5rCdP7+ogdzw1X3YeR4aM+2W1Y137SagsQPCCK+tDjBfP+3lwlV2GeGxBgH/dHtXsp1bX4LXXgg3JI2PagybxmnAd5vUiiBe6b7q7wIgauaEq64zahndNRfLlIRk4STP+9RMteU5UTrRbH4KuRPkba89Ea7JibIwoj+LLmx7aBcnlSSAICj2xb8UPk/RYKYghcwIMUiVfXh2emwosVjfUqJ40/Zo7qQ3SJHctkQ76Ukv1c2wvjp52LQTRXV7Ysy9kNqlh4HYwuptAmq0al7edwNBBiYLJIInAMAc3h8AaR28wXFdMwbi2lFimVpf9jVB6wD8fPdYGaXQZOMsbTvUE6VzomW79qFJjw8Qk1ZY1lYCM6ObnE4NcNdZ34CXH1goK+pSwJE7Yibol74gOVBpp8mNJbwTfEibPfk4MHZc8mzdQtHCkgMPX/OQmUHW2dqtVl8J/41ZzjSJrIicX+f3NZWpf51Kvs8x/iH51MoTna7FbAi2OHFP3cNkGCWN8zR+k7t7duk3hOsy6bepo4AtBXzNWdZFV+tpVS1C8kwaELXP4Uqjp/FawwfN6SVWWCNqdEP47PMciZPPLGsz0gJf6+ZpvunlL3coN2vcYabsVg1J/DAUj4wAlbW7KJAod4ZCv8aqbqm0wcKvhh7IToa+xioeMCjw9K9N99zkQjVp7D6hme5frXkPJ1nMS823bTj1+QrPlUQn5RiuwGwTtlM+8sEAAQC6JhEuw/qQGEMZ1YHAkZ/0hZq0GDLA4hMgLCPvOzy6+SGBaUUr3jVTcg7yK+MRAM/g7Usr8/4zItRqHIdPv4YC5TI5hxhOLuFenrB0jj/wTse0QB23IbcRwOWIVYke6uIUy/1ip0/tga8ZwOW7nQKHT+oDkJAaszj2LMk0IewnsO89CEYSWraYvWUTvhP9lZ5A5aMQQMy55MWtLaDlyGRzJymqdC+pJyXcYKAXBrdjaOLjxQIWkWJvsSps98O9x1de5Nz2COiRzmW3HTThFKYnmM8xtnHGY1C5gvWFfpn7DlTaIno2OVhPfYNLFvcGXchbEDd+RtAeIM/hy11+0jrMWKRKy+LJ/c2liN7QYOG5bUC7BVwr/oCgMrGXCM0c8fhSL3JonwZbqXSdO7IhuTyrxEytQv8ez3lzN10qda3joth9OhG5uhm/w/IkHUWv3Wx+CQHNqdz831jLn4BXihZH9jfdO3oQrZIiEREUCG9PMtp5OUNKYo4vtfDXW/cox5c3v7k2AVhrWhsa01+bg2gRdBW7XMlZ4yVpgjcvpKhcYItd4dGX8HYTk63OTru1MDnLBLxbORWv2vjEE6EOo5roxEHVMi/RuLBH0jpi/YIcUd5lbESc/U+KNd6wLFxhRhmHqZNOzuKgAmeZ8ZYq8Kz/BB/HrVyOdDMMoz9wBXVNsrbBpvSLqCu2j7pUqFeeijF9+hD7eLnBglRDYj35Lutfu7018MFlZQN1C+ZocM6F/hJ3Iad1GSwd65q2/Wdl5GvJLPenO9CKm04/Gd8v9fHJE+JL5O/kEQ9+3D8JC8HotWx/metElIlG8baKfRvxw22Es09Ay7C5wanaj6RPzO5TaAHOG99WzgslUbpiiM2rCEi995hYln1LnK9Ud49HtR9oInfzRmZQ7EDe0NDF3bTkm0P9vJP9+68yIMMyTH1rTRRjUr74HZD+TWRRUpxxgksUO/v/A3xEUXdjrEVAewAysQ9Lung7HBJ75X1JpHyDpDjPz7aTZz6Pzi8ivpNtUlVJelJRmlgMYhjVjjWNPIeV058l4Kcrp/hlDaAHL+8RtvM23AGLMAJVqzpq6qPx7KKgkCAgVrkmzQ6HI4IcVlgp5OeLAhWULegsbUh7bhbi/x/TATl01XsgVzerY369XOlUwCqPhnc8EVpgt7qu0bnsiwC2oIbljbsTGQpWF+lSX2Eha8AFOo9sZ664I2GdtIXmdDxLyQFM7s5ilGBSwIqwpntYdAHnj1/mn8UIteJ4BiacwkRPsXlVrFgpxnkXpKFmi3hLklunql5SDfQbkQfmuJQpnWaBTUEXdU3dPkXmEvZPJMzpwlEDeR5JdKuhp+tZ5D5VeK+SdPR+ZJOypSsStZUlfTAsE7vIW/NU6PaTqvxsDOkG7lzV4KeLk4vci59tCsswDRWepvhmFJl03qHXg6uGjmEtxuvqS/N46YfpMlPvBYNeOVOp/OUpTKKCIUanCSOWqaD0NGPb2FeCwMCjCZRxcw8UYqYd5FV/71LMqqOjdlEFHPQxwTWGU6iJB5Wrn1S4S62ZL58pDJcNdRwRgt1Y5aSMWIB+YldniSx1DeX4XvmNrzUrt87IPchbXaRyEfrnafbCV1gQUZS+ylhQuh0QqmMIvPGYDTu7kn723PaDNtdeM6K50QZVQz4UhLkCPv+7EQj756dfNZXsMXWOdxxwIdZo+Jqk8OJzJVvh9IkG/MROI+iFGpQMjXkJF3AGxAMW+YEaJtlC747t8sWuSlsp3RzdjjXqUxVGUVN01k5Ln+Y26HIPGa1euYwjD3ghF0m2f+6TTnAU8tM5cdUbB3DCppOOBP/BznoMcnW/MuGmpHZUA4nLojRaDcXWcEwF4Vu7gOXci0zlu+TarcuN+j5LKwN/5ORFut2dInnUD7jqb4eynrqf1xToseox77Xnrl7l/xM5ocx9GKMFWG5AeV/iCDl7QOFO7giJa9oIY3RFdkJ2nbGgr3LIO9g26W2u6TtW2h9iCeeiAzt8ShUygCXYUBzi8ZhWehc/+2+spnMpsGv9dA/ZkbdXQt2Au7rlzXHZPJR51MuMRmfMh1GcrQfn5KMEgU7N6kCxe9V8vvORGsS6a+DxVd3JIQlZclB6ebEcAyImAA0sXzeQPlwsf6WSs5R66moiW55Civdo8vjm38nWmjuDXBhTyCAQhQIZ/wHpT3/Fci8dvCzSrcs/emtc92+eOJeSDliQNLyU0vtV/A9rl0/r3JRmjtnmLiqq+SDVG0fkvXAbXvzHRa3jQme9vJCzoF+tMl3UY2QtI4wqUaWsjIU5vKgyj8hPGHGta23daJOm+KIm0nh3oYjtui9eOL/jUm0y2je92pwpbxTRabOIuyB2wXix1E7tgSgcFCKV9UebnJUVPw9wOcmYvVCZY92yF0vK0RxgQEv+/7AoCJ9Mp507WCo0IL2r+7gl1BmEaLk3WiEiSeO23E5yqO82TPgdyPhr/WKeQzUYNd5XuEv9hxlavR9lEegR/T9AWs3vk1aVfRE3t0iCr2KaxTRzkFqhBtPGISYXxJ7G+aVskIJi5bdI6mvm6gWvKwrJ1ojtecwbfijyb4lSRpv8qpLjTM/Nz9nBlvX1NEatHYzlaTkbisjuCMXRAP0hxjPMYGUmbOL3DEhfcsqukxvZ5ZfZItL/Z0NFT5ZGcgcL1q/R5pTeWsTH0DHOySYKAFNb2um1J/XSe+eaDhmKkDkq9txugQXCoaKD03VYq9ha1s1WeR4WGOldtNSghhVleOTM4tp+gcFJVJ8/4y4jJ5DQTUB08nublEE71F0JuT7NhoQU0yEozn8ONQR+H5RljNFmFZFdi+rqxa3wvLzwIkwZKTuClOGuRiiLnd6xMAXrdga2IWF5dTimjmQeCx5Trv1+85Z4VOtr9lSBTKbFv2kA8TCJ+Us/6rt6SxDZJYh3eWkylaxypGAbdl7KdZp6yJOL0QPsYdO6uPIsXkY86xYH+cQGf38cgar9daTznE2aKs2D5weShsBaf6+Z3/xW2GljHmtq4UZz5EawAuxaakZxKwnWgoh/WnB877A8bdrbHLWV7K3Y1qFFaqA54SYlbkCsHtdeo1l8NXElMl7QTfmTPknaVZrJIPz281Ndi673/olppAt53xesKbUtpy1AG9fpF2W7iohygQUACVlL9mg/5FEzcy6qvYYXY26ifqFf6bBXpj6eUmdZsR+CPZRIbiNy1BnrtIWVSucoX+7uLm9immohxkRzo29VKIA3nPoZd7x6o1QPkhlJyPZQvgl6fOeX/eW8DD1NzYTuktJrKSTg36dFkphfw5Q4QJiLOR0PfXAg50YuvOVxcy+qADd4t5JMIsGWfmHnLd56MZOluLcgpiSGCMszLpFyBZK021EpPihV1vQklDycFOwRNzWrwtLE81YwynHsmB2tySgQrCep2dK2j0wH8wk+98v8Y7vBRvSw2NX2naypydDp7mSt9cZBoV3c3qQae9gmA8LzBq6Ue4SGtk9WBT0aiB/cTS9+UE/Fx7G+OkmkIoX2orKPaUOmpWx7RzkI5FPqcvUHatwIrnvkI9cb9vjv4ZvLLfe2tq9hbjdT6eCVD7caby5PElLxCrH1BjfyNuWQRxlyw0AiiXcBxOuHYVHsKQcn/Db2Hp1omQN0HkU8EthC9mhYaXUFEV99CzSa/HYKfG895lY2WXus7t5MC3LvrSgdScVi4ZT9r+M8sDdSOdl7Hb0yfJs33i0poxjG+jcB5kiAd6di7+inpU91Y4thq7ca9grNiYRZ95+bd9/T2hEWQpii1a7m6iEFc8CPZapKDILuOVKUm7E94L8ZzWO6iMesICJjTOsfLa8OqtHxBpKCpwSaD+WGrMZ4PQqjBRgch2pLUjxPWT/zZt3+WC/tz7guQgHyVpsNRR9i1qnJY0gFsNS/kgDDKi4728PfmVv6QXmRjFJK8qbKc4LAqcJ7Dym71cRa96rZC9PdmLfVpJMmI5qrkJzZNyQ4ODy7l6OIJhgmtxlE3/KzDktMkAQGFs5ymkUsUI/oyRh96cmVAqN5qmoRq1sq7yTxfFeG03el+aDw+XyXOlb9qk6XxR5BantwI9sJ2nQjDtr70Y0PcLjlZgfXevARNmazuDsrkYcVhHa+o4JJ4UJzY9yVWF1aZiJLYWn3W0MjMdvCG/JdOGtTWvSmE6KAtQEphXnmpvb7sHuUdQVR9haGjlH+tY0ejwyV2He8oE0A+oj3YfueS4F1mSQIzdR2QVZIpMRcEextIkE+gBe4ke6fGsZyFaWGJg4CvxcBVLushDff/pGpBxK7rY2VhMldxzCkcdkSMnrWW84OXB5qUEt3zDlUve49NCOj0y06jiyvEcWEtNvZ7ZIKNlUN3QrNp9zmezOf+Maya9wCU6ktceGDkz3zykjglD6c0cB3qJThvP5/DXTv7alVLHjVhSbvMu0pANMARoOs5PEr87qnb5FrChte8bBv/pZybXbFwt6+2NZpv9bZE9evjvt4BFH1RwyTaPr/A21l0hlG6fpzOt6ydBDaxi1oeY9A8HkH6Nr6EgXoFPBHlJsIxfmn+r62YC+C5T3xOZCFOg+btvc94zQXBifg/PF/rm7GiSZaMeMJO4Y+En1F5Wf3xXdxbhP8Tz0/cU3BvlZsCvHjE/VKXZtCN67b9CodmEw0WBzGkz5saJuy+quDeqzmqppvnQ3npfM1FIC6ljTTxbijNkmes/ONYu2KKeV0hsc1SvS05dWz29rlgJUxVA03733F8G5ZRyFT3TWrOR18Pq9/UXn6CMUb33OSWWK3VnZL6aed4e+IgleIfmm4lbAsJs/ZBJHf9ilZQwHHK2RTZXcb3e1LLxkkSy+xcoUQAhTwHglaMIEFMAfDU9bqKlhQWo2oJ6RY1H1qph2ynBJxWfav18B0koajBa5DQBU3+DU7sAj0vLC+rl0B5CSCeYlvCHnA3LCSsBMtDTUO9TCapejUOeEyfhDJbh7l706lpszJLRrvrPuRCT80BSCvIC6chiqWtE+z3za2PaVqrDsXojuz6PP1mVpUV2kJ0cZMNnsv3ii6008hDIBvkSR6J/4ow6/zb2kucAu3+YkuqLp8ZRaaJdfqWUPx6vH7WUXYxiWwtKhsLoGC5Sxx0UqHG2x/196JGHc/9KFP1ZRYYcUekuMkR9qqDR+ZD9eTyu27rZIKZbE5o6qzy8td6KKrfTVqcx3VxTtcrYPcAcIwcrq1wCBwxvVBGIDRxKjT2p95sx1YlHteBWzXvXSoiCCj1IbsOriv9iiXqOl/tDW74O4C8SC8nRVE+J0EYfh6X20EGCjH/pFLwLEwuj5FY/t0HoQo/lL4vxs9vyCnTK3NvDcrIgR6lg2SLi+TV4yCVhEJFgfQ8bX1Y+xx/LX45Ykaaxdei8fDu7tUTwqUP7KtdWOskazepeWBDMy6SEqRbkB4U+tjAHyM6GY+h0bUwioOR3A/z8Bm0R4XytHLJ53kHWFwSdyHpKoVgbi8Rsl0x9AqQx9EGb5gWfu1qU/yqFbZ0qeu6MHfmohhJK5Vu8SGTNZSs2EPF8NEr6rwL6050rBH0WhMnrWmmzqRdM1DQwQFEg/i3vPr37lrtN0yY5PdLjfsKQti902XWAzOMBPHvsCGUP3pDkKb/+1Xl1w3/ScFff7gG2T82yq1H7ftgC6FbVaImCQZWSfm0F7oBarCj+KgwfyvlQi4BW2iOJHtu2GYgP6YaK79EXrq5VsX7iKmpc74ulDqsI4MSugZbrh8JhyNU826gvKh9WndqtTJv0CmBc+QNMK43D17I9BtrptJCHoE3o9+N4rIia0nTNNmUXADi2KtE6BPrHLhnNm5HnnJi3UbFsW3SaSDvf/ve5Lb9OKn/SthFiOjTIHLpEUdvQNd0swp+rNT6YMMCFozRu52UJnbLiP/t0gvKKrMSlCnRmwKEbg3KvzbviNLunn4oTltSVbmfd52Xtxtx7wH32iYrd0Tw4eUp5H1KhSK/ci5hefsKNXm8S1XIlLQHqvy2OpDnXgzvHoazS6lKEZjptWKO6Yr6zdS+cJA7DdkRecHFfNfombOEZ08C+aQGEMx/enTlKE9vpqTGduiDu8MryerA995kkvzRG4Jb/xjns68aexV3FH5Xyk0AtgxXv9cgwkCxAv3rV6GTkMn4GOFdl+r1OGHAtDEhCI4HS/T1tsILTAwTyvikifx6T6GrtXiqzEVThFF7SY3EYe+qIH0aqA5J93FXl94T11xZiUb/2TRCmBDc4MF8+JqsD0qEWTtv86UWlEPuIHE1go9c+EPMJLxzTKPeSPymLLm3DDyyomQ3EZJtLrIOCW5biZxR4Wzn5kkFpBQcNmXHS1dcN3oU9l3dyML8vwbqDlGBNd6U+uaFuw+t92JWeujjk0DBzC/pbZTQgO8B5TFLpRJlO6r4H0fU8ym0twtx60wkhJ6o6jiEbEwygxBgGzCKH5VvOXWtY0sOUxUy9D3Lq4zYLrgRMJt75fYNunb1HkjjERMio8u09HHTKkzERarLiZX7BncU+4T0xNbYxQhoJSfDw/Srha7stC/u76EiupLH8ucyIsXEvR0wSzYUue9SXeIUBe4flCgdHrZAyob0+oHsm8VnqjVwce5Tk7E4SW+HupF8flnjS82JZIT17WP10eTDk6y+WA7Zyulv5pZENTDgonReTNtoj6IIul6TplAwm2mnalzp4+Ul78RcCLM6QTRJK1mOEA+lfN4MNu21R1D0D4XK893Bt2ZsvCrP/EX4mA3gNNHF4nmSBvjY/LwXeFHBtR0h5rr7oH3u4MNSUrxt8nXBOnvxTTDrjjiCxRXdZ91ll4xi6ytH3ThzqX8ffxSf4nRyKTvCzg5qXdpH9yAqR5rWeCeyviac5ebDlYsQ5Llun7DFompa8LYeLhIyK96XHcvZb/hoMY1ksVHiejr3zY0rRr57rg84mEiFejBBi1TasMfQLDochSFliJtQfYDXnr4l6hQyJB4URsN2/f1BejGtaZWHk/j5ErRS2iGrEN8wBncefNq8cMY6ZyALGkhHIvj47LjdWfCYuT2hOveT/YvfQfxztIpPlP4YI7QH1upYvba9UNWOlsjQfdN3hz+0m9GYdIg4Donkc19dKmJChKWDG1c50Nz387ayqfkdabeBjRvIQx8XO2QagQf10T7p+riqA9ZdztkI4rF4Z1yiS+YBrEqn57S75U0G06QgJ8+OHuWnUgM75xcIG3OQW/EQf3VtZFud8mLdQkWbJsHt3oFxVtn9OAXLLlLaLrHHCLPF1DeA7lzcOpCdPHIoNVljS/APz0hacZBzMADyjJrg/h0ONTLkF7VDfes+XyQ7QQIRKB2nPSec7o906d5nx8Q1YRjv/QHcbZYzPMx1H9BYQU2anPlydt+AVpBh9NafTzBR786zLBlXlua4EKxc8Xnm6h7gWhKae0WhMeq8gH/2LGCht7W5qpT6qjiwmnsbPAiuI+LutDXDawBNXT8og84q2U4r41EhOj7hd+ZiCM24F28V+8aHvuxTnR2g6NMtiW5e1kE6zDQqOZsopXw3BGLq/lp6/KgCZ2QTYcjDnYaEHt4bDeEnORK7rkXJoJegxhMqIAxmOWVMw1ifqSePjaLNMVrkx5lhGtGZKOo7pkkBEt5f5daBigpMOgiXh6x38gVA94u/IK0C4gNl//AcCdcEz75PhFYINPP1UUZMwjIy8oaBzrIwAb75sNlkvO+xrkdLWD+T1HNFToQ+l1GAeh+dDq/YZHyT1rGaT+vk9LH3zseNuhjYGSXpkMMA8MmO0mrYmzwDkOUkdcU1MmJz0+VUFz5Bjascnt75yODEonE1oiiNOvAD3Lh8Bapd/93QJbAra7W/H8bM+rUNFOMQNhBpSFVFQbu2e8ZHbXcF1hyHUrn39L5eyLOq07eomfMzM1N/KZ+QoVoDfEt7bUVBzGbTvKV073EMU6+G6eAjkbWDFFhemX+QQjhHSJvfiypu/KavAzdqI+D/Zt1D3tLoRzMgJTyqhOhirCHqvpTIn7gV93tZrqSwn2JzCX+cv/WmqXy3rAGwj5KJXlfyIa/PjGQ5c8Svy4NmMFPwiD9BwLf+c0KTL5ZF3eUB6h/u9SVPBgTUsfRolkL5eW8i1lbJUHLdx9WPJC/fURRUS0NvxVS2f+ZAc5gDaaAi1k62L8dEchR+7rwVaS+s46YCR6O8sttnBuCTmccsXsrJbv6jA9I4hHk2wOKngx+oopq2GpSpd9nnjGMHTwwsyWzI4pL/GPzNU88R4DKj2nvrJW+FM1cHiq1mhc3czFvh7oAHu+LSQ9Y6NmzAktJxSJFV3I65HqnRYGRvQLCHMQksWluByqB5cHmNCMEVulNX3h0LXBiJuQpv3znqVx3/1kPdl7fbiuKSphmaXIyw08tZ+KNtJ55c1lHFNdDnH1N/JWJIjAxm/TpVqKsAHVJR5WgCJJDqiv7zbv3ip3kzj2E30Hgxso9sPgRXgIdwh5TlmDsllrJPzRCpj6Q1mmvZYH43odLN7jk2fbzW2fMUZ8HX6SpEcm0QSpw/BGM+g0mXnMq960PUyXqA1M18ggd+ikLBhNyehxPTvMrbhyU5KPH9FNrDx5TOMmzTYLQN11hCL0MB80y53mJSrSq3EotpXXFe+JtVfTYe46jFlJc502jJSD6FPHJWTjsVCvz0XuWnivJFdvUM0N1nwq95ec4A0sUQeLMKTGyGIAiu2sMflReh+5YH4JejH6NNxCdZ7SyW/vknpyo5XA9gsFhdawSqXGPpp29LbIUVNvUpvAyexBXw6HKdCO2LJH/q4Lag41wfh1RcP9eWCu4WvgDCUYTROz54rqmKLggsV8Wa+SDpl7+FJCp2OvvrAfMkZKn09eXOAhKckFX2IViEX4aKC3OQ3aPo1ZvDv4lLgqgCDIuq7sVJKJnh7UTMi3PFfb+viXOU0PoiVtQP1DSFF5kZniwJInODu7VYn3LPrmznP83LhfEx4rQMZG3FjDHsSps72D9PZIta/owh5Jqoh9plb8ubUWHzRXyxnVHbHn7OTpuyTYDsQFkf1hUSNgxLxh1Z8f7YTTHmuubXTULCbhg+WjGg5OgEqpFNB8jkcG2ODvGJwzgUFODkkJrRc9+jv99ApjYwgxYl0oh/zPszFbOg3HgpiLVmXmlwiamBSpCGX/5lyt6BX0k4opBVtBcBsQAWiFpckZCa1aFmbNXv+H/i2HTFCYLiZwTBqacc7JCkhsN/lumXLOF8pXkJIGkRnhuA54ZgAIjm4ORKp2oRg9qs15w5W/vZ0ZukdMe8Rh6dj/61iSTn6C0mfXHVaw25ATlrlfMOMqAGjfh+yfT4qJNsPOHk7+wxnXgNN/2MEf/363P7BneqcQh60K5hketINEpMt+34i8FMV1TyJr6QtCRfdX1Nzad4g+hh89cdrplQi/E+bimRk2qECHxyNbwnpSTveY+LDvlZCeZcaBcDKyNb2dERgMHWqSDrqTgTzWSGvniRSfCnBLjnHXKmusTFFqvO6PJ8Y22eS4rqiaNbEdYtX4RuWnqJz9dQFmWnqysPpvx9vR+RIRAQV8+pdUk0bq8HbiMRAFnZoh8XvIJLgTzsKtH2f6fGCxAmXYfXY6nLyNqhuW1bmTlGdqlLNw3e0fzvuAMxYeFFYMNM8TP5jgKADLCqiYA8LTXZkP0RNsu2lictNs8SJeE5VnqpHqNGzYBBl6scS6VgU1vke3xzAlfFdr8b+4dquq34PNJZcWDTD3rEdW5f4tm6x71Jmu+IRxprM6jeqlUVMN4qph12NHzLF7amp89EHcW2cuUbQYYkqYunLd0ZM3PgEOABirT6Di1heJxwnM7UR4jlu+MIPnxIu2Zns5CfkXXSlLlg6LWmAZ+SmAIDhBe0779e4i3NXCRRuFqi4/id/3H6QxkYsiEkyLh6gGihZUW2GaIrGvOIK2m7aSxfHh8GGF2wtlEWTribh+TG1RS6VYlC+tRWw4wafABLLO4LkQMWuGqivpTJmIGIg6k/m4H6kjCAev44/WOVtsbjQES7iigUa7BGa2VC0x1ahPBVY/wvK82TllbJBL20fDYmudp3i5aLum2Xbgu1AeSe3j5jOwWkU7IFZVk5UzxF2hN7CqG19p7aTo5rSaeRvDHxag94k1lgsIoXLdffOSBccWRCU3yOQKon0zAtKHBKL64xKBZXJjEud3wL25GKVhFuidh4iT05kFrxn7n4H6qOZJRkkR4z5/W59+FvYr2UwlFt15UNmgrUN/7rrQ7ilVCSRN0kV4OmcLvyNiUZUOLc1hUnWwtCfci60ttv3WYhsvUOLYWTJZiiPWkOra+90i02hUtKO7BOJCFoUD/z3Wuya3JbgHyEMjntUfKzvtvE72v9X7VasWfrfQoaNY7A1CUIpURqO36EoRBwu5wV6ub8fSJadARjOxVSsYZtEAL12LTgsblorvWoRZQOk3OFciXvgTad2Visqf/OxwHBcnUCH0NXn0Ll2jut52Vo1eMWjuXpcDiXj2iJbripwLndjwbuj6I4tWXNX3jSPJVD1S5qlFYvhkJIqM2QT7Q9zBDFPdDH2qr7g9+tJMVEQaKF30vlPV3pv+uubN2Me5zyWzIwDbb3FPYQexorNywtblV1NVthqwaJMVqbz3isOMiNzOzW8bEUamlJmemZ3ey5c+sb3d8XEg4BVKOfwMx/gUGOlMWHTtF+PLg0S08m3QWiC9ePXQfo9wAFqagkTSDe8dc2hOcsJI5GlQAJtSjBjzVeGztayfSoQS1UAEdMNd2RX4Io7dMvLDrXfS1hNhtqcTsD0m05UxEwIMImTHcKlyFkVLCX/doFWQEgl3tqM5VOl7sNWjo/RLdthSOBwsIPtx7WV7Ux6kBqhp6aHsckgcxb692yJOWR/8/deONEmJiEnyxx0c2xWeczYoJgUUE8CRAU+4filWmNyp5wysKJpV8KBj2F7IlS++gPfV/+tZ3z/xLGGmniXPywEgHuAR153I52KSId4G4YVFIJ5ZtbNmuzOvwG9uiswF33n1AlRgHS/mrLPHe9PO/ZXuTRaDf9jhtXstRaiupBVeng4sJOpkqLLSH1F1j/i5GEIoMZPn80fPMbLb4k4eR3wMOL5TDXe4ehEdaYa3jWpwqYr9eQ9lsSriUdYfyxsT1dTwQh7zdiRfO7kQWq8m7r5m1CxivcnzacQIh6ebANId6wH7bjDLSkj23ewgbqmLvZ8+TI7MQr2TCq3+suwTgMvL6ZmWy+G6Dyd8HARfBJ1R3+DSknnqM26JR16fVB5z/A5sIKvb9+3IldG9JX+ttcqLa08NEVbE5XoVClmg2PCaqgANY2gZFd0wHgFELegGcGiF5XfpnMueD7WM5NxCPip1QkVnS5A9yjADKm6DTS6q2QXC01VEijWTP27SM/kPBSUQpNycEWNnzWwm6YPAkd/uJUBNCuQAK54Ea/terl0OsGcoZDCgx6e8Vec4ma0BujtnMHOuxfVkjrzk0J2eIC+V0haQMeJSsfcUt+tW0lAvxalhYgvrljx3Xf09Rma2NeZicIEJUgI6rr9TzNFntaMh3A/MwSKxh4+WSHPzKzkuDvcS+0lNnSy/OOEAPm9WM2O4XuUtQH1YvddH7ZtoL++3NeH4CTgB2nmx4raQ1gsIlnwWqd59I64S1rwAlBDRpJRmSBngsTnmq3U0FLM5ggcAF26IIqL8bPjaDsV5S01dd2EQD+G7PLAj5V0845ZcwqUnneicyuREW5ipjuY1Gxi9Hxgeum82g0Ic5c1Pg+z1OgtkgsK6nc3/g1CqF/vl4fUEs2py4MrYIuqh7+pby18FuHbKVUchJ0SQkl5GuKfGM43qGi04hz3y739uGmTPvPrOtvuHfFpOCq6rtwHrGbTGxPYIVeul69ptlOJjrMRSsFIuWGFI/WSB9j1vZAkXlPtTMJIgPLx45uhHteX89IRSAN4lRQAAjiw5qmTEQpJYX3i6DQjvtO/7vygCsQ2Bwfwd79HRpt4TPVqqMrmSpYEUvMZZhP8MPEfwF906LIWhqd63MX2QOKeZQUCaDAAbX2E+wjLX6DqpQXsPSKuuF82+hDni30Q8FrG/nmwLO03dl6GX/WSFy3Jkn8h5BnD7MmsYttP0ZOkMI3xJvtttz+wwI8yfRcjqhD9QDeB378O+0jG25lXVWov/YYIuX0z3zov84c7bSIYIN7cpHthj9NkrQdT6EkC9mTluXxYoKWOL7XktjHELaLhkFsX8LSh+0jONLt9afkuzSryLND5UozqxkVezdwV9mWVnCrVWRajrDJDxA0NlvBogZibhp5ZaQHwH1tfwD+uXOZimoRGpDnmWW93t9GVz7a0RlxfSuA6qwQhHeSf+xrbUAVRVH4zzPebkhrZAfef/uIArTVD6fSAFDbS7Pc9tHLqVJBy+v4wgvDkYRcpP41ix2PSIBBhFiHkABggUhaRZ5TA74AwvP8qyViNUJlYWIORTya79CNqBL0FmxYW1eYxfU7rdxQrbs940k+AUv6ZnSafQHHPQvLhjMBi8st56YmnQU6lF+NRJqHQxNW24q02eYky/LJwz1Cvg6MjP6JrLzZzl5ea4wmJcFyX8jFIwY7k1vqhF1b9GLmggSfMTZsK7Ku2I6aDFm0g5KuEItd41cbJjVQn9zmoCUVSPNiFyBnjL6eKeW2r+nxLTJj+Mn0hJPAFjKsMlLuKd+YtRBHhA0jyvcV8egBoy8Xs27cDzSFWGFVGf//iBDuSvqsAwgCsdmT1mIg5luHK3E4029fABGL7hFZC3wyDtJmlDWfPdawdRtGB1kDUa/JS/0d6cft48+agxBZcvtpcPmogdk/dv3YM4GEq0TFYHZAuqtfTHKyMp60RcELTRj5CQIv3Bjx8/mVO7EpRZvkTmQuPTkTy7sjXMwCS85LApXJ6rLt6hYp8i69noh1FVnnpyOVGAZ3WiHaqpRRtti8FNaH2qswuifkY9+v+O5ao/IoQiEaD9QkVoXZY9n5qT0o7ApRfedRdp9dnMv2t4vf+M76YUahNN8vueJE1bJfY8pPSyl6RRf4mgRAqylhoSqhpVPDYzJ+rLEvHBgHnS8OpPcOI9DQEWfi+QBoD/nuh3W4Lzutlut1JYmLBXqmxtVG3pij+XHEum8mEmVbK0E9eueblUDo4oQ4XwRuRuRy2gkY2S/2oyHNvY5KmnyYC91ECECJk3nUWk+/VbiU4uP6df0eJLhmtwAGyHkGelmoBIEGgfGaGHVKOp1+QKJDQqMkeJIJpdH36Gx+YJwI0+zmR1nFC2gTNKobg47ug9xkCeDr8QwM6xenMQs/m0Pu2RRGr7aOL2h5K7S3MKfUBkZVcrHiEocAfR1k2YFBIGQVZ2jK8tiFB9szgT8SUXxGfQq+pf4ZEXqKotTSU4Ni31S4C6SI3vknXb+DOydd7M53vOlXMegi/mxTJ3QVn04Sgh0UbBKgYxxqG44j2x2I7uqUMdJj4XSinYay+0MVkSrSSWkg00WNv2hiqzCv+TY4iSZk5nViNjOTgxprerIEKBL1WlToPYsyp1H+lhLheUMU+cjXC8UBbHEZgzjDZbTHlc527i2z2sh82Lk1tX+ZlyGUeMVgwAjjloXjUgpXl91xRfbEr1Fu+zDne2FUlvYnmZ2chES5VYUUYCaBVYQCG2cgIc4ch/0Khx1wMooOPbVyCEQmhZr44FVsy78De8GvfSjd/bXg55LftB/OWbFhm46LaiCPgYKxgmanh09eqVYIv9YbTX/bv7gWM4hnvnSbEEcOhArXUtrXRy+PemLHQ56z20c1KoBt9jazfk6pF0cFtMrzb2BEdk96pI6ZeAz5MUG2GnAz1vGNEjs/tjnt5mnCn7Z2RiTozMmUB73bRIanaMIie3vwE/1a9IhEDTWNoTsy2qrFctAZbWhmm8QD0jwtkvYQVW21FEsiWAb4kkWjlj8Wwoezaz0/ImqbxxlX/5008KsbcXyJHHfZ3RzvL1fYpNzExelKs9cd+da5M8m7NhSUDRgcZifexysP4c1F1ohrKJGfeU3ZFPJCcsmbKjXX3CgOR5I1u3xzAzrz0aZQFs4ccyEQjFupCFAZKNM0TomACJDIH0T78lbxLXc+8O35EqWtfsBwinST6P5XrBY5IGdmmWecyj+NQ6A5d1vP4W8h6ZjsTctjBfKvVgPrtuT29gBvHUnpLOI4Fp3UFQGUW9VVANcbBW5pJ0t5LyyRn4zmfWrlpqFACtnLdXjLFkcF/7lhCUQrET0Iq4KGw75Tfjbpt0gMAx+lmu90AY7MFp/nMCyguKbwsk28UgOLrDBH47bpRY1hLMR8CXrQiskR5ExnhGBsNikqX3jOJZFGeHLx8/SJeHGxY1h3ivaNCjRzt5v0ZIe4IAg5rvbFMZdoRD7FLwkrnwgMDhcuPbC6gKzDa03JJs86MKECznjE9xipuGetWpCPDgfx4E6I5X1ZAGa3+yrZM5zdBJrRAb6uhXQWS4hgdn/Zgkg1VrHblfQ65pzgzwxkevV7Yimd5URddh/wsWwO2wsclY2OgAaAFhDv5NY8XUqus5Ee9sHlnOvNxWqYpt/ZIH1+3c/j6tCKw5oQIxnRA0oJYir+T1fnzH11CarwTJ37oUxlwPijU2eo2MiCa5fNJBJMlweFNiKpMs/TQSt1dLbsEeSSUjCiRzWKAKuUeVMkHzJwuvhgv/BbFQ9jFr7mFqrPbWOrEtXltw23vWlke/rXNvZaBFFaO1QISRDJ6bCmUO6v1rqf1UIeJMqKXBjTm78yCcff95nrx1V66nh/TOGx1ilHhWK9CZtbW5fLgZIMxzD0AZGbgTlKP5UOjCXXWLoC/zrSH88BpbFTz4MVfuZXDIWgiIthR27/3HIgH6tnIpNl+blc3gLMPouEAKjy8ttEAwdh0/n4VEoqDiPlaBUoIWqEAJjp9dq+5s4/XllD8hVZ3GzLmU0nG4NDzSKGgOVlj+sxn3PCNUPQ7LHPG6F8OxT7qtde+ve/W4vJ6A5XiBppG5Zf2hKjNUeThdQW//D0tFUIpgLv2Tls7Tn6mWa0gJv6DkX98SnOHXt1QNvEuj0QbgHH3kvn4O2kLKWtj2gbNPpz9rbFeY9q84W/3WWS2x4NDYYg4EoRkZnioX/GGuDNjriPNyU51sy/TkaiUUL5u7v94AknYbEn4lZ0YuxbrVBkXrR2OA36Q4TafBnCIwskyXKdTtxMDSEpEBE4nK4tgvo0H2ovNdvesMarq96b2oOyXY6ibeoCNcO0uls6BwvKQmdxpCt1SkgYvADVcpoCBzy4PZtUsp4iZk6HZhnASrs8PzKZKCwWO2BBLC64i27hdImgBBWN8GSlWslO5nu4ImIBbPi2+huWB7jYutpKMq3jPJD5fANkgv7N3DyuuUYZs1a8VBagJ7d89uuI5TM5RXG8IWSDebDKJ0yxKCUQpR+pl4xipkI0Vc2n/CycPPcs9N7pa91hVlNhriP70WX2T/C1bYa1BlhG072ZxTEwCSU2N6Jmr5IzYf8pOykBMOalCSjLewjdYc/SXL17HxiDMWRwDGFY+qKfyw/Ai4jnS0XhsMSRCkOlnekXfkwIFMRq110q7KrVXPn2Y9AHalneGhIfG4jrT6xYUry2QJfJqnZ1Iz5RnKiBX8hvOKzthUo+BSv9pkQJNAK0wo88H6hIPl9tmoxoJiwXYjy8iCXBkk4AMOaDcfVbIQmfaB37EDCobsBbMir0+M+uAGlK++U0dw41HmppSPw9gwC84MVpnriJ8wytd0Tx0q+TVKAxqyGUzROww5TYUbySfXR2xlFr2u2BKnvVc97tjILHqaqQWnLE4BPcmLz8N+K4Zpe7i0LR0CJmABbqRu0Ujrlc9byXbPHtRzplmfWyiuJ4QqWE5kKa0s2od6EYsOobb05N4Ko/riLx7FATuk2zLONnIpuNwF2zl1/b6mAPCcd0ANduB3gbngXeHsrkxz8rLwPk3ytDkd2JhZGMtvPobMsFrrJK2hmhgQOy36u6Ayhx/X6xmpikDQchLEOG8j2Bobuj3Zoc//uJdSpYOIicN4VRLD8DsOKMfPw7RX2s+gTdo6tG6V9VMsaR5jmbQ5/L/iqgPYk1eMZkNokN2UIpOznXLpOsW1gb5A//7IS15f4H2+xuAptZZbhiFHAZMqUn7cJq2zJRTwnbEX7qQsYoKShY6hP7IL9FgDM/3o042lMOwTz7fRy/UpKp0kWHq2C1GqVl9rC2aOS8G5EH9b9fZmQvXR2NfKMMxZRNKhX/peE6mWnjxWcQKM3FxlzzQMODmi7zNAMSQ3rBZ3feIWVopZ5O0av52R1YLh66+dJBs0gr/lJgD2QJ9RER/NPmQVDqt2zi1KY6AczQUyNPRr4opps6bC0VMGidyKBWZ+WPJ1zsnsLJl0Le8NeLDZno4Jowz7pD6NB19TbDm/20NYwf0/A9twZu7VwO+tjIkVbiFNG8KgU8tT/E1hohv52JHt+7EfsoYFuJPM7rE/9IQpolEQs9stojlHB7vZyJoHpKjThcnsNW+2lkibpQszjh3eitE0nj77Hl3kXeMZ48cQVOpUuGgi9JTXPoNSvzAirXArVywP8x3GSRY+Glu5qa6NQIYrNue8rnrdfEsWU4HDiteP5wHrHnClx19CkoBEQ1Vceew3BZrWunFKqbRoRxtSpBiivat3DSLGdyqsHD35tUz3vfbAK9JlX5wnEh/bBNQV+Zt6GDWGDIXb/vuWIcNlZugdPMjOifAMKudjhEXnDsQHkU4xPxtTZI1XrM86AtTj7Xh9/YKu3XI+8VaTVjUHd9sUXUoJNWT61Y8Drk/XgK7Z3T/3W6UqkLed55xrjxzqw6WahINxV0m/QvRalhF1NR1T5FWGivWvDMxHstWNX2mf9UOb14e65oXEkySmvkN2IWvgk+UBY9CkWrCPl48QJbR7Yu0gxHphAQ/bKkqRRAGYIgF7kcvVA7KAqZ/pQdTN3FkVf04poV7xW6WHDYTyQjXAa3op/WlLEZltQ1UziPaq8D6HbPeUQU7hqEQm1IIO37Qct00+ZXLP67cqZpY1bgps4T3eo8nqk8W7f+lMkmCU3SM4wx8cj0A0DPBCzkr0g0aMd2y878rdKQ3pqrxIXLXnZgjGjRyJpEk42cr5pRzg9YItD4caQ23WH7+0xQgI6a/qolZRbXJ1v7c3P38p702i1Rxf79ou3aA33VbkVKzJNylvUoG/UwwLi9r1FRz8I4WXBqw4TO0N4SFEbfqwM0Pz/W62bYVkutCRiRnqG3LuoT8QMHTRjiGpAaWcYRa4tB0rDjTTT3Hi/FjSy4Efz2y+9Mq7AqWK9vuBecQebR6903VealBJvQhxMVQ8t3/Z7QdNyFyJ1Gotwsm+wMs0oNEAUFfdi2m6kRP4JxWSA+rNkG12+hVsLttY4s9nSeRpn4cSj+fcNB+rVQB+/Okydnx70R3uxqyJalrycuqDgTryxyU6XxHEmEH/Qi7EfyDaIh2fl8Nk9ImUcjwoOI9poaa1T16IeJV2QkvtTujOpHBV8vEkngmRc2m2P2ehLgECGzEQO2ISODjK9KVvSbgGum3iviWqCda+wSPLFghGspppdWwtVaKagxmEAHHBjVAWUBlsAk7v9KKJn21M1Vnw7qri9ePVV+jKf9HbEPhSnMmNWVdlP2uoQ5aTZ0jmoVsjG7FuWfvLsD+GUOzVuOBKp4yny1S2i80QwoEn0iXiGD9dKd+4XGyVLbww0rapuBxLxUbhdH6lXtkKDXJ5A0Lm4KXfeUmEQjyxjzflrfXqvNYqCAuPECARGzz+XCQqEZyCghnsDnTc5MRy4oVt/wO4YVyS67DNu/psXV4mJFuIYaeDMzh2WE0TztGik0jbwAYJUU4Ow9AW36GpKXU7IGrmR3YAcDx4+gDtNKZXfNO1xjvw5MiJrs20LoxJt+QdyysIZxcJj9LzPf1TkKlFofolPmT/KgivoZv8mZgnG8U8pMT11Fv2+i7cJh2oI+kDAl3SdRideub5fkazBq2AQP3+0BOpVC4edZ8DMQ5khy1eGkagDy+YC5H6rz76SuPYiuXv0EwhLWbd0BcJXiZEcwghZRnqlPh/OCyU7UcdLZUsSrIZiP7G1xEpGQNUIWGvrHNyeskJqQq2W98fQvbEUqnqsquUNRMxodwc48f7iH8u2VVOh0ZlcXGuA05JcYUHouV3DBaZTPsRNl5LOqPcj477o/aXvTcF7D8YslECSjad+8NQxPXX+TvuXd3e0jVZQMp8IOyi74C57PBm/kaTT2WssKSEfp7ZDBYg2h//usyvGcMEkAa8lNfb2KMv422URcWKPPJ8Vi2vvSTqaW1aU4If2xh6+arx7P+NDtRPH+zyLxSCNbvqixX4UJlrOLvkinSI4/giTbW8W+qhrR+JNiBds68t3VXgn+hC+jp6wvB68mRfh2xFRE45o9n6AUv1AJwSumQeT/ggyBLwjwoK9D8YYdXl//8qI5kf00URbm6cXQR7Zvez6a9pktlGt/mY+lK4IQtdZ1DVQ9l/7AArHLKRLbWjBRHrPDtV+Z2zfaVXR1RW/dxQcKj6iq5uBIOcUXEhT7t+DDgYh8614QQra7IUzkXR523qJJHRuUlmerxLFrJ0pUZkCIMM6xF9v3/cGH43SszPidq6z9wFHh43VtSSlXRzobIbUy73YpOPbghzNx0kT5PK1+HyhX4k9H6uKHvazjsWWVbFR3nWq/chhVDOJ2pffTRHOoiI2jFcNXT7SsLPvFdjPCud0oWcMmMppA8f9O8wTM3wUOxLEClQUec9XgOTD+r1TTWhAW99u0+nG93wa98ogxq3xyGzgvrEnlqVfqBprOgGGeYaAhZVufBzfvbF7YuCI/3O4yTqZOxNfO5pdo8yHyzR/Ci4L/rQPmFm2nUmJNMOq75uN0OnkQHk1v/3+iI3cXVAkZalgad0on59zsNV0WCR16ugLasSqdqom7iCOllIdJEGgfWZfbeNABeT6rujEPO3YNq7RzBgwKCKno/+FaLEP/vdVxnmbdQnULXMTi844QdaGIaliaNkTvsB/Yl59+xTSopVhlO5Q+leQd9Btot4I/etjKYkVsNPo78Kf+JNybKAdxSgzJGB6sKqAnYiThU4ImJN9pe/Q/dk3yGQBBEnPt4mmhE9W3cYAo+bEId+c1dER0voDfTWEG32AkUuhPBmNv6c/hC8AxovAnN25niejzZZ3FjeXdYjai2i57AixcoLphvw9TLvIgukDKYF+a5nJ7GbLEalzE2NtJsrr0bibSCb0+gCZ7Ug3IdwUh2Q2YMpFrwJXyVE25Rqh4kNjHk6WFRDtGK9/Y6GKCSQW9m96CTDRTQavQibqZlKYEJDmxTHCMBjG1fNg5lihfH8ogvBbbCyBpcCfMBq/mQpdNCLc+Z8j/jGCnkefNdbO7WhOmZ4yb82oYTYDWlAF/FXAMe+0w8G/fYkc/7xX3P57meNeXw5n4hvHLxQ8CsfmI+cP1v9gceCUugKE6Fuz21NfPRfDoG09X+yL7edrripIDPvberE7ppDeoMo3hM9xihE9rYXjU/zREs3Nc7jjTLvbWkMLJREp+opJWaRtjqPtDQj7t54v7MT4427r/oXh2UjkPL7EOKYrgskrm/QEYb64EWgQfdRgwuOzKcqL/TWZG4ENpwrb3wohq0IOIxa9uV2YTBGmQn+KGaFmT5vLKVkT1XXLO0eD16K+B36IVQb7Stmf3bMsWu2pqoGzMw0KrtSZvmtrTS+prM4eZyeVV5GzRp4+yXIKzL7+lvI2yt7Sra/mdCwhfRDqyTv6L2p9FPggo5HmPbCv+CYSIpcAQ8FUGc7UM2uCqwSxG4yNi+I7NCO7PdCDEuvOo3a7Ogj2aO57Hzw5dcLO9hrwpDKYprhlJ0hc1EOiyYP2Z9vpcPyvqv8XyQjiuqy485LHQfgzPlsbqhGD6f3GGBBLW1NBbbeyh8fx+9qQ8IMr6c7xvZ9xc65BCHJSIi8mMsOd3Fe2OJV1Eosqb6EevLIZiyrlwYB4Bz/eS2w/+hiXZOf1H+Z+/iIOVK9CYn0ZRTPVZfEQFVDMHc8iNzYE1wwx/jmnGEuf5COksQhEG0rrqMh7CdHTWiEtP6FUVNCckMVvZ6mhWX1tlL6OWLSnP0c5ZDVbaFhPnnIGYWj0APxKxOBagm+fneyROajVkRmuo83kOTVkL9jwts8iybjfcvXl8pnByh7MXcxusc4LK7qkC/wtOtJyK/S3HFelZNRTGd8U7IOchmSccfOBOGSrS+tTpC+0RvF4lP2B0wSft4jJ+BeKNzgFqnCLqCWCICl0Ma2k/D0S1Spj5lGrwr2ep6PYdwfC6wM0BZBnD4RL6oOXzddWNkWSQospJnQyo2Lv1BSetzyLxg8tDhKJ1rhWFkNDP5uL0G2pfckMhd65he/KYgiwm+h5Bl2MW/cEL4l4P2Su8hllChjnyJZYN3w+nQvHgPielHpxxEhyxN8MJurstALLUv8u7Ep9qBofVzezWt+PKu7wuVKsmJGkSjHYclxXM8ohTfuil+DxGqKudDK/LrsF7o+6+NZqNTZHeeA8h3s2u8K0uK9bmbSko/uREoosCEuac7lzlaX84cllDtujFvgG6efGUbJLcPL2clmkmavSnhhfaTuLU4t7a3tssj+zYyRage2N0dH422jSjrg/7zhmYX7zLygIfAvUzWndrheqL+CaXjEu9CuUDsvHEnhu1eP8gzrm36oyNsUu95vkrUAkWeIZ4OL1FSHTBRX4rT7IBPTLiDGnB2F8q+RyD9VD4Ow7eIxzPVy4uhGrDhalXbBzfYCpnGFgfB0iAm6n4lB/3KKXTsSdsFe2/JDV2E8jCWHpitRPWKM5LtVXtMNeGaYCbjR3UAn+83qjt0HMuAoo9eOQ7Qdr58mQXdLh+EllOyRrR4k1oUP082zFxG33SC/BPrccpT3cgQWQf2o7a3LBvRLmIexO6zFDWbOorNRR97lBjuwpAzzxrd9MPlmASHrNc71bjrxQbOtMq6kxMwhRGkPLQ5wZZFrvOJNrVcim4dW2VpslE7WOOyoQ6ZRjwzSNGIwHTXCWmNZ7DVPyeAp9PQutp589VVB7Jj6U37z5wUZ72atfAzZtEcCmoCOJ1VWAhZQk1aHCLYy/vysoQC8Y8pd7pR49Zs7Za0UxHplEiyJEDDKzLfnLZ67Q31UgNfTlrE8KBql7cmsS9MT1jVEiq4SmWxhiEiBcOZOKZP1VUQvUC4sZ+tFZQsYQhTT9Sej3suDLcy12VR6+sys0DEII87IA50xAT0XK2fJwybGYBhWpQ4phlQ32z+Rx18fKIMlK++/Mf8vO989txGc11ASchz066TL9cw2U/knLjY9jKTwuWbHiPoop/NlmCLhYGRrx8W31qgnAZpsygMN/KmsD1YyPd59kilLlCO3slXZDks4tmKIF08kco1DIxfUd5kgA7cS0wPYqgaC939i37g08XKveeGvexyYrgCSaIeFiNlyFWkE3G+ntVsuyPdlxGQ2MfpvjXBR55wuLio3d3rK/rJ17FFxcqgCv+KPhoctu+srBWSpQqtnh6eKwGmQO9ZpPIwyncrOt4GaimS8XR7CegTZDu3d2YdC/l87WrTqtZl299LtyhpPVGKVBnFBQcSpknnxcZNDj7k2ud7kczj1r2D9DZOVtgceBPTBzy7dTgQT+pWwKi8TAoZ0UBeoUY5bt7rBVV5tuLLXUoRM1+MdRjCPcVGXFpm6BTcy4PEnwM0TQI99F+3GvHjnOI484b+0Bj50L3yxJN5znRtDZaaOS6t52lals+tojFp8VNrWTCiRBzdPJVfYfxNNnI/xqa0CQ56LZsB+YS12UqVzvZ+DGf+UWXzuHl0jtytjMiJEZgVbDB1OD+LXDCDluUefKQ9+N66gXsnHDvVsXB9OpIzV4cB3xgLKPydNaevV9mpLrA3rri4hZUYcm1AMbA3BOVZOfDcR5KzqX5qlJvoja6V59h9Z2yLyleif9IpeXkOId4lIt3ycZwBNqRD48CpNGl3D+8lXynpDanKauiCOl+v/n7EkLphao/sk10pzCmr2TK9PnEn8udgpgT5IMypRFszOE3WLPOxnpDkjMKz0cJNPrzWqLkCe55f69/eIHXSCR/OLmfyKB5Dgh1Zq5xU8A3agxLWr3UmppUYIPojunSX3Vhs0pxa3KT/UsGq3bZsRmWgxQdDZdyC7sglxAXvTlklf5aZmqMOQGRxXOr2P7z+eeWRIbLe7rbIrPaklOP/0YSZ3GthvJGyD/fvQhlOPpJZRJ/Ak4XKfNpurdiwC86njlaBGStIkZkbmHpeVUfSkle3PIsAWSxp1jb8LBhvus6YaIoWbotb3WIN8Xkcqfwgaa2vzOP/n6Svfo6pHDHLjqIG16PDkXO0l71BOdJ2ZApkkYJrELB1+2rhx2wuqviDSWgClMkryKxZdq9rsubjnOmBu3UpWxbRyxG1AICcGt9+kBJ1w+kcIGqVeJtiL7aYDitwoR/auIquXMEV1FKpK3nOrxt2ib30mj4fLN41ZLZZ+LghA/5B0FiEV3B9lVaz+C06s/saX5iP6DDdqdXv0lnUWbfo0j4PSsUYtEY1gi8BFzndINXZLGg5+E2ANDrjP7YFokCaAv6YHmysg3qx399fH728gav3JBkLFenayV6L0BJf5rjeF7d3wk64EtB4GlIiLBoGqoYfh7St8GQ8VLbZTVbx/ewVgiGXjpNHak1jtgZscOgRbf0nu283iyNwiyeVkDfiQb14lY2vhr5owaWckdcwmJOX8ovdehS3v5ZKErQZhPd5FXndJJ//70waZZG73+tz1psFKlsAib3dxz8c4DutJWTjsO71alkNGDVNGCimZ0dIET3cxAeMjh+LitM6akvkkY8Ngnc1P2GWlA9deNWi/gqZ5uTFqCARODqEtAI3rp9Fi9J+41x/n58ujtwmrd1qyycOFaD+uAcL3F52JAQp1oD0jI7z7Ct/rxXQEEIa2976Zlk4lIsPJmJ5QNxv3ZhIJBhkTwFtxAUovPJae5reC76vzvOhXy9i9IYsc6Bm6q/b4T6RpOrrawito8ZqwMcB6UofYsQCuIwVUqg2oIzqVNRaaLVsErcH8sHWECapbZ/fmqyqKOXN8kTvKkpYwRq0aOQBWNHqHn1DV6TbT/958ENNi4UtlZ8pSZ18ipM58CwUmgGPUyBLWwve+LPSgTynpk1lZDBJtUBcF0zx4qu987ap81xJluNh6ewFHrmtYhegGh5sXsSHrcoTa1Glm7ir4tsw9ML9/DcrVEjIIamxLuPsssB50fJ41QC9AvO2TYUMaFe6vIFmClC+bEiugj/5vBx47hengeS1afu/BEDoEkWfmPQjhIo1XTzKeglIyieKVEBpivKX4XT+TzNiOSTMd3tSaFk6tYUOOjtm4aWwV4VlVKnbNrjkmOWOKi0dMJNfNa00F0CyJLuMj0TpfAYbhf43ncwiIv5agKTVyAgwyQzI9pPTyve2ecL/4ffYgsFdrPcN2COwkx5ELU3iyo+hhK1BlMw/EEqkbVxUdURuB22PZL9hzPbmVqEPCmCgg2/N6J4u/T3z2NoqA4AiVOg+f/UWgV6q3BHutIKAo52ldbOpr6+9w5jylx+d1os1c24XULnF0/NprPsf/GVATQVgUgC3lx+Uj9dUvrtZY9LDoHMcqPgukFFS/TSWpVRnJlHHdmlbzUBppiEQEvyFB3pBQ/d+xeZN6tGIGIH2FfgSPCMiqeeroP2yG4S3z1spRkNY2U4OvFAI7+m9+No3+fYyrzyJHE/Js6qSpG8Qtch5CHsZqrYVfb04KcMrGm9tBsjS8G/h+gK4yNkGTqNsINjOyvTIcgeZOzlERbR178ELZldqREFuuKP6z2I2jaGFHgCGw5e0+18UqRWzV6MKmBzauwTULOfdo7nKGstZtDxhv0adBUbcozOqVzYjJYrz4urh7TyjdLCbpJRV2G+B9S93yBeey+IB+4cXi//ZtanjVJ7My2jwjHK//wkyB3MsWfcJMpkthX8EJb5CGelMATa780OdCSop1t+9ak9BFpCRIgpXGgoWrwJsHQgsGNL+zGvK0qiAK7nyWq/KTG6YhpV9Cm0QTBN97F7A9GNVhlyUPqyx+ubdzko4ZGztfsuPyK/5jG07Z0wLL194+xrFZ+EOcGh1fvad9Py/OraBsSsmxiWDBb4hs+yna5j8H7Mtpzf0QIAheP9wbmCtFx8mugGXB4+QhsHlTffRmL3DgiQ8mlkLM6u3tmE2BUv3YsEN2ICD7suG27867HVROLUVUOfDvC/0bLm1hBWQ+0mD2/RgBv8IWXJHrgdw6Da7Kx4yvrHl3vxmiFEwgKQG/wCtMQdfs3GwXskMO9UjFR7/ivFimXnr55iJkA+S12Eo3X9hU9Gld/RgjRzcGoUr8W4a8Jxd/znRZlegQJW1+4moITFmb9xlVvvW+rJjz6gDC3ja71UGbq8MTBSGXAcqc/S0XcASOgatmfKBzRQiN70rlVLUX/Q4W1gXvYIAdpuVUgi6lthSTdwioaSeIUjQ1EJ3naqqW7JaGN4PzZ0+wxJg3e+iFMNLnV/eKXSQxT4q+fDM/KGzE7Yu2k8aeVms3i0eGZQyTosoJf3lAXA5OuHQhvHYEGvPPJspqPo74YeiT4/2tp6Ep60VrrwMnuFoaJEjQw/6ACh09CaxZaWiVIbnLgRyLnzKNOd+oUSWUxHClifNAITru0Myr93jqexJ5ehnE6TCngxsymJH2M5zEPF0WaVyRycEXmVTPkjmzenQFCyvo9o5ZyFLYybdkkQs9Qdx42k5Ufod4kfqvKxqhjqmccCOzxOKJK5SSxBZevkeARwjQL12lwap3kDHiQuywHBD3R5KB3v8j0FIQQiB47c7FIK8F18Org2V4b0tYWycz3C7wCy7bie0Ynn8z3P//xzGgJJTlkAHOP0Ba+CwRktogjEvBy2h/vSLQjrTr1vlhz59/8eJrX64qDjjq2tLXu0rALfkWZiSaXUg3R0Jug1roaxbRjZ/3RlRg4/8uKVMOSHWrbWyAxgBYlZul4oDk4SUQAtv2pGocgDqd5N8DG7PshcXNxm0DllVixHjDpXYfd6ICgZ4huDp6ffo6cDo1xhtoHagoyzhqYcPTcvEL/39KLjnTo6+5qltojlY1BTywXpzHA01lU5rTvuTo3BBoQhTe2M8mz76prINXn87m6Z0fevVIcUScri+wOXrKGoDA2qBvvcW+dxIMpScQKmaxZpWtgWgTo6ZkhCbFb7KjIuUH3CToZM+NH5fA+0J0cR+GGPdnb1/f4AH8nxznzM3TdB5Ddb7jXHEg/xqHjtpAj8sx3kTAdd6avB7huvZ/nFdWdLbCjE0ul7Oe/6y2sx1h7+3sO6qPzTCBhwyPi9kHxFyxBtnarTgiIzyAKct74d/xqY5qi93Kp51HfMXB805aoQj5Wav+1TctkuOjQZEOsj2gjmAnuceFLDINuzNic7XHvu8Oapan4OSLtnMAnMOgWRbFqjT4kkgEgk87PsDffiP+6T0lIAelHJL7+gp1qj3PCL/qrwfOuiInP6sqGeCU6HW3A8S3PX1QFLpBzNuwInTUDTHCO4S8SuhucrJ0Xig/GFkKkP9CSK8/V4kqjZSL8jsu25WIC1kPkAUppcSmmnKoaBXUZb11JUwGD+E0ULJKYzBCz105lCNNaotiUdS09EbUk2W+E7PX67AQaVBaBNfpBlXNMUFAMygJejoJO6Hon3pIv76V29D4lKyieoEricCm6AIXM8IW+HA24+m76L3IefOJp5TdMOYOYCJZ17K5m0KHj7PSwJc9LmoWN5P0Dy0vrn1B26q8XxwwIhS/7mGGsg2zwfD2zl2Fmhkb8BazM66Hf+CHE7Pr5SO9l8iNx1C7CKGCbIeerLST1qcPT+XQWpHEegH6jaq46WclF4BMikiM4WgNErYXwZIOjkt3ffDMnuJ+pKhCoxxgq/lCBx6xHj/NeDF9vuMxKmIdevo/qFd1AcC4/iEQOw0whiO9MS7TzfCBv96Ej6pGh2KKWXRCZzdTd+C156qYclnXiWfrb3yb6MdvUX0V+Uj96mpoIGCYVFz61y6RTxEmzSc2bEZVZzaH964R4oVtY6yX8nZOuVMxcIyhUVpPU/vqeNlCKJZkstRE4rP2EjHJ/d6XLgIIAoBWCFAQ9lYvm2dNtle9TB10GWx06KadaXyHPYIQXvnMD45UZmQoxr5tUCcxa2Mp4hc9jB5MyY/p16JgTOo2izdPL+c4J3vSNH7TnetbbnfywwExVqRKzdMK5obA7gPtMqjIQZbq8eKILlGJcPrPk2FNVnNJ6lSxlciBm5ZI8iNbryjze5KrWB+PCpSTrKrJKPZDreAH2BjrZq/EtjOwKN9bLV6XYvC3FUGkIbmhlxM95BFiVoVqbJVCesBSxInZaXoIkkFbKk+RsNoPrLN7bsFiumsUMCSJsiCNgv7IGNIsRLDGl5CTieigiBhz15TS2G1EPkkfiZdD0aDEqKmBzphtJpapbPZWZaAt5kIuaq64lNvI6rxhd9PQqpde7gMZC4R8e8IR1gSmkL2sKLPcL2Kdtcuz2srhQKL7aERwaVQe2JKfMBTxV0GQviuKA3i76KzdeG7asS4VJKSMKdimmB1yaH9LvDDKGrp7vlptNWC2p30urRtA+/roe1oc08r6Ng3ZfQpwkI72T1HwvKkfCkKaRjbbHvCdgzCe2sqiu5bsmZiI0ghZNBVwMuREetJZ5ENT+H2L2PYCcuqvZWrhUHThMczbmtJH0MMlu2+EQI0LcRE5cxbT7AoKCq5WIc0cCR1GN0JgzqvaOk1fz0wboWHqgO2aiXfTFdeNmebiX/8zPq0PuSp6oWzmrMFvs8mTgK/CgTx111g8bbE7Gv0DErASBBHxW5AjZzu/k1y3e1S5bHwnc4n+QMCWOLW032bwSXGKu69FHGR6gPj2fMppaccZS29nVlVT1iJtuvv1Ulo8kkWqhkpBclCBFQ9gItZ7tUNH+64s4cPsxylO0mOrs6AyJ0sGHJPWuQOVkyIb733g84SSSk62uviu50bSzSIWbHW6ti9Vxo8a8dwv4wih4WauYonuxxqXkK4WyOSEgIhi2cx5vwSCC7zYWkEuHHFvYcWrGyU1BogUb9xFWbA4RTfMgEaGAJnpYOsFUygOpQf+stvYKJ7ZmbNslBzkvPp/2B9WX4P6SSZGGFogZfUN3Y51BArwahwmEb2bXuySIGhrmSNAoONCd6kzgAZ9RbtqLgYGUj/ypxsWAGmhVzmXrCwz7F1OC1JDqu3zVZDHOks4ovtQ1LvSsuWV1UOF29KVF3S+Qv9LvvZdXxi+y/poqrTFW0i92qfvcuc1cDUq9SOR+uZzRMKUnBB3rf6NqPdlAGM9YmbC+TIVtQdtUZXxvVcVIg7pxWatUdeo6w5QWxtHWblU9LHQjioSdBdaBa/8Eh/PQxGzsHF8jop6Ezfz0h8Lq+JK1p23pfabmw5oMukj3t1PwiHApROUJz2Nr7XEaGxP+RL/1elf8v9mSgoBCw/I60/Uj5LyNvQ0eet2XyLoThT/HZtO+vGn/BgtXoS3EQNxwpLC0RzNI1hd+ESU6Irms0SZXQAiD3jQ1GNFFywA4BYM9+BbBdKP0lJe8Npk5H2MEEKNpTrl1DQ6aP87U3eokf4MvvUoWLuWNgmk89aSNlzsUApYs9fBAQPOx5jM9wdWKAneRqmF5ybVLb6j7RN0p7hYv4Hv2pdlp6cNUd1lnRKI+0u6Jv9YxT61thXgvzk/WGPTd5CmFnxKp6RCzOfZc7r/l+/zBcOpwiP/UxGH3VaD72FVQC2euNkr4SJ+bH0zu378cObqh6ksANrXEug4mEw+MA09g+9v+O+kDzUryaFZpMQSNfbPHeeG05VrwSToPvwnQ7WLmL+fUp6i9t6X2XS7MNoTxclYeaoul4eKuKfZzma0MV+P6vOPWVxph38fBrqiiwWk5gZkk36t4/wMga0CORVa/4M3F0bN0iYv24ZAd45RPR1tBVvxfDnW/UU++eBcWZVoYvHgWgD4Sv71cCcs1bq18x7gBCaf4LIoRPlrViRA2xsh/Wvwy9nE9P2p/kCdILx1PTCf7qdIOXkSxiTv89xnIJG9cXhhI5WJ66vK+3fjQ+FUhErRNM+q9YY5/eFphEs516+aqdg4XrZGXy2S0D3KLfGr7jlgyz69yGq3XN3SmwyOYTzKk9PTdANR4v2pw+ebpuceaiZTpKLj7EILK1Bhf1KZl2nMonflSxkVtyM7V7Ug2s4giFc4bZUwG2Gcfjo7vQKH6jnO3tz8d2Tw9kn0b0j/URIhRkz8FX72vZgnqg/d3aWWt3PUYvv9QEh+INMdxt+ZH+/pV9DAhJnZ8u+9xQ9UroYCzxIXIKCljmYm+eAnxE9vIDVqTcEyvngEioXM6SKtTCkB3baqnz5Reyk0py55KeQbg1RTSt9gwcwcvVBRXCX9QBq48WEXtsUM4mkXHqu45Aa8t57ZaF7x+Dl9oQoB60CezNL5h0SPsenhDQj6x71mq8pLwvJh3O+WEgg3pGNYLsSQbIgf55KCr6pPRg8qkdyAjUZSu7dKM4ut8CBor28f7/qqVL58OHrcnsmXFpKmcXD9JdhXxnpJvP0LiVJJqt1O7Rxoc/e0aUbVitzIdfq4zRrRTTc4EO/7SojMR6nUAtLsy/2RTvxycRBqs2iYdEZXAongRHznH6+8OQnsY9SxSFXVMCGfQDL1EhwmZH5GbotPfSjoI5EhBIbSj9haApJqxUX6PoqpF89jh6C0di/oy4EFLrojhFOhPx994eM5ltUTLuOUHyPXpm27shgnz4INEG9cQXPztBU6vhwc9pMsH+C+T+AFrnwq++CxM7jSmth0oQ5mEe90vJUwa/jMZbAP9FByFz80h07V5N6NSD5PcmEnDTnJbkZOQDOH6pSwlfLdZ1GXs2sbJER/n0+ZqenZQolvji9p+QmBwZPecSOO9+z0hPAwrjL36OLX51jG8026O26O2zxlw6IxXb0S/n4PfKJxxNr+l0KI92DAgktYNIB5jMtfkXErXsXfhh8wlh+3cj8dS/3JpieJ+MUI6TW7osP3dfHK2y8Lt+MzLImn5g/JMJlyWJR7KsyFbw1+JZi087hJFdtegDZr4WqMSD65r+ALhAJmZlY2uilRTU1wqv0CoGPrsdyiYB2NSDMQeB0V5rcd4dSNd2S50zAOnypGCnYDUDpH6FNWmAwIn1GPVmuw/6JQQw+1GTH/wMLPd7jgaAQQobQ2gb5/baLhtaO5hSj/7Y3qaQmTnG+w7Ubwy3JVCFTJmFSo7AzY2Lf2HNulzCGkDE8E0GgtzTwBh9gZm9uRvYpVG6DZv1DcIvcV4MHynuOPUPreL1WwsEmKUGx+j9fmjBFeHicoAeZ7AvmISNBOCRXXmXeXRP21CUowg/tRHNZFZqkikyis9XdH5cP9zQDndfsXcCPBdzI4qqMuw59quipCeBn5iPQ3+FASiGZeU43UakqbbT2/qccgVjZRCjHcb/29GA3Yk0KK23uLtnu/zirgOi2VEbed8s3q1qfAYUpNNnIoPQ1mxUpCuGiZZwEfxOKC3Dy42f/n+b51WUbrQn1VZkwyBNYMygQAwdfd5nphl78r8j7PdVAKIvTvzONghCG4HDbvzlzV4dKWbhcr3fCRl/LZP/W3OXb8MyNb9IsHAtaMZzZLpU1HmGVKey+WzQCDpkUiruKdxTsWfvt1xq8/QlF0L7q/lRu4McUCEndUXmcJ1O3E+LnhiO0Dis4RQwPrTWTfNcKgVJJnaIF2jMx5l0VGDxD9jqFp8OaWICZuLexGNUqvWjUFGrWTl2if4dcGMs+DZ0QcwB2NCccca+b2NnKY0zbILBNis406mcijHYCw85L5ONk65+4GLdVsJlLekDA2ype4UJPJVJ6EAunncivxMR9vkAmJqFnEcm6KQVfjm0ZikVKDP2IBifmPJujqsSFQvfgggWOZTqqldV5T7h+AD2+Hchw/vpvhpA9cMezYHGU/HgSeY1kmwhuX1wHL34U23UWgMA+xseiwtwaZQey/dSerWNXV2/+1cdRSXssYEszjjHV/Mg4oxWs3IZKg52oB2Ol0KpptsocbCd6yj6AqHkQ69yIMWS//O0py80g8dCr5jz0bLf/hVrh0RGvchytqvV0A59r61UeHuWt1wpIkYjwAy2upkuNcVPUH/xmMpiToDgvY2wZP6eWnMyqkZ0qJ+E641nWmZEckfZYTy6KGDNjJwtqi9JHsSEq1tNVct2OOgEoCez9GzUtXJxWdRA9Wu8dej63hzSlH1yGjioySsI6/CTwymAQDFnbHFsy98djcY6iHhTC8WCOK0jKBlwOOpIaSrAkni/FMnf4MzZxVlVH76ZHutSneeB/zLs+tlyb6UKYAhhDdWClb/rUzuvIfIen5H6T3Su1NYAps0QKTO3zAZjZvM1eeZ2gSFls1tzRiUboUKAfsZIWECwwb5g1M2agrSITEn0bCfzSYzBoq5fjlBSmiMDSZHzYTuR4I/5lAfWp0ws8FyzaG0shKMMcVlylvatOVk0sM4cchoUL1JVVqNuaLEswmpTtyqlD7RSBWU0hsUR9FL+U0M5k/01GkkB+HMJjj4WQcvvx7i0GU+tP1BzBPXuY9l0rGGcB3iCvbyFQ9YF1DOpwbQ8MYenh3vsnmq7Og+LpUfm3J1sTp1nd56gRGdEdhIrN0JxqygafFwdVP7tYn2sxFSqWMeFNeQOm4d3o9s/8UfWRWuXRYJLAW06N2k9DklRcgC731ggEVzRdN5gTWSj/bn3ynwFtPsQ3hM6tGJ/o+BevJOuHsdjV9jZYQsRiOoLZqMXqzbe7Num8nRIovAskXuYDmasd2ObPIwmhISBN7XAqnkzLwc/pUkR90tlH86yEESctuOXR9ZdltJJy9NI/FtxA2pn02DepIEFZlY6Cwp7ld1b9J1ULhge+ZdUaeelpGqjTScef382bMpXl6ItOY1lKH50sgHFZTq2Ar4xgTXRoppHh7x2a+C/0BqySWGKAM/1pwUCramCqzSMUcw1Mpng4AkoYyRIFciQeEmBBGGHT+OE8NgOrgJkBUcQ9Iz81SOCpJlMWtaT8M6CmmkMSHah4lcFa/1Y9MZry9cC43Cz0vzgDNipJsO1Ll38mWY8GDXY2lQPH4L6D/2yWGNAU5roudk/o7YExjTc5O19GFrXu++JfhFazCRdDH5/SWuXISAbcjG6wfm7APaD4IdrVvmzWwUM1TV1QbrcVFB3Qkcf/CIb4Z1ubrW0BFPEVlVVr1Me2haKJ9bCkysTmni0eqe6odPw/WyBjO0KH8vR0MDRl1MSighI9MEd7T6vCW8dW784KA7gtDf9d0nvDGQGYxz9Uutr7RALYLYLSfUBW5y5FB/sOfso0w2WFn0bSR6njLqJHesa9f/qv/gISQVL1ZVW3+9QeBAtBc9pvChxuNqAI+vloNZ0M2r4jmvxKb42ilLcQeMTOS5uetVu433dnT6RSXUI8HVbgi+WRrqcRUhW8oMB1Q/N9IrR4XyE2b++5SV8MEBZFTRlkZDm3r0zAPBBpOQwQKwuHnqsmAM5nnHkPgBpOHbQ7EZIGt3pZ5qYsH7Xuoc/QTiNbuLi4Gov5e58t3uGvbY/ex2odRRmzIsOQRWqyd93k1IvF7iO+L2YbkeynnhA6MoYfp/IEDNt4ngiPVX+Px/FIyA3kqK55mjtt70/s1Gu9FXdUOt76cL13B4iZtDnCCZ6tlPoZ46zsSlxBVcQiIF+/JIowapW6FZzRtcVX7aIwDp8nIoiGb+yI0JSz3TnlC4pTDgYDWXFwWsXiCEAn1F0x/9P+5KN0kAJf7zPGIz5jgDn/OgVFISYu7z+GwIWL2MfAvNt8zFXKA0LhCKmpKnKyKxu7W+2V9fQIVUiakOF+1v3OS8Tx4gxp6aHFXZC4C67kFYWBXYK17NL7jqWYtKbm7P38+hu2DmVifJc5X5mGskH9BQd+FpX26wFdvgHp/W/4/vsv+Wjjl7MDCDNwfsfcVBizdDeZ/qr8ym07+2cKLZxrdUnsTqii8cU+Y38atz1KLothVnrYmhTLm1InKYUOMP1eS4sYpSxUtEJn1H3MVVkVybeT+mXzM4wBZ0g/2oX62RkHBnmJdYddDngRwzp+lUmS6mgEXaAoFzqZlaaA9Z2mi+heY1rfNqTP7yb7bdW5pxp+8/S9KmoGQViDvR4EnDwU7uYLHgpaf6MDSdnMA==;" parent="1" vertex="1">
                    <mxGeometry x="60" y="440" width="524" height="266.89" as="geometry"/>
                </mxCell>
            </root>
        </mxGraphModel>
    </diagram>
    <diagram id="R-GWcJEKfz-gRw0i9TYz" name="SimpleNavigation">
        <mxGraphModel dx="-79" dy="653" grid="0" gridSize="10" guides="1" tooltips="1" connect="1" arrows="1" fold="1" page="0" pageScale="1" pageWidth="850" pageHeight="1100" math="0" shadow="0">
            <root>
                <mxCell id="0"/>
                <mxCell id="1" parent="0"/>
                <mxCell id="1qyOkG9RnoyExfpBVUXw-1" value="&lt;font style=&quot;font-size: 18px;&quot;&gt;Journey of a Simple Navigation&lt;/font&gt;" style="text;html=1;align=center;verticalAlign=middle;resizable=0;points=[];autosize=1;strokeColor=none;fillColor=#33001A;fillStyle=solid;strokeWidth=2;" vertex="1" parent="1">
                    <mxGeometry x="1115" y="30" width="270" height="40" as="geometry"/>
                </mxCell>
                <mxCell id="1qyOkG9RnoyExfpBVUXw-2" value="" style="edgeStyle=none;html=1;fontSize=13;" edge="1" parent="1" source="1qyOkG9RnoyExfpBVUXw-3">
                    <mxGeometry relative="1" as="geometry">
                        <mxPoint x="1140" y="175" as="targetPoint"/>
                    </mxGeometry>
                </mxCell>
                <mxCell id="1qyOkG9RnoyExfpBVUXw-3" value="Input from UI&lt;br&gt;(www.website.com)" style="whiteSpace=wrap;html=1;fillStyle=solid;strokeWidth=2;fontSize=13;fillColor=#33001A;" vertex="1" parent="1">
                    <mxGeometry x="940" y="145" width="120" height="60" as="geometry"/>
                </mxCell>
                <mxCell id="1qyOkG9RnoyExfpBVUXw-4" value="" style="edgeStyle=none;html=1;fontSize=13;" edge="1" parent="1" source="1qyOkG9RnoyExfpBVUXw-6" target="1qyOkG9RnoyExfpBVUXw-8">
                    <mxGeometry relative="1" as="geometry"/>
                </mxCell>
                <mxCell id="1qyOkG9RnoyExfpBVUXw-5" value="" style="edgeStyle=none;html=1;fontSize=13;" edge="1" parent="1" source="1qyOkG9RnoyExfpBVUXw-6" target="1qyOkG9RnoyExfpBVUXw-10">
                    <mxGeometry relative="1" as="geometry"/>
                </mxCell>
                <mxCell id="1qyOkG9RnoyExfpBVUXw-6" value="Is it a Url?" style="rhombus;whiteSpace=wrap;html=1;fillStyle=solid;strokeWidth=2;fontSize=13;fillColor=#33001A;" vertex="1" parent="1">
                    <mxGeometry x="1140" y="130" width="110" height="90" as="geometry"/>
                </mxCell>
                <mxCell id="1qyOkG9RnoyExfpBVUXw-7" value="" style="edgeStyle=none;html=1;fontSize=13;" edge="1" parent="1" source="1qyOkG9RnoyExfpBVUXw-8" target="1qyOkG9RnoyExfpBVUXw-12">
                    <mxGeometry relative="1" as="geometry"/>
                </mxCell>
                <mxCell id="1qyOkG9RnoyExfpBVUXw-8" value="All the Appropiate Network Process" style="whiteSpace=wrap;html=1;fontSize=13;fillColor=#33001A;fillStyle=solid;strokeWidth=2;" vertex="1" parent="1">
                    <mxGeometry x="1135" y="315" width="120" height="60" as="geometry"/>
                </mxCell>
                <mxCell id="1qyOkG9RnoyExfpBVUXw-9" value="" style="edgeStyle=none;html=1;fontSize=13;entryX=1;entryY=0.5;entryDx=0;entryDy=0;" edge="1" parent="1" source="1qyOkG9RnoyExfpBVUXw-10" target="1qyOkG9RnoyExfpBVUXw-8">
                    <mxGeometry relative="1" as="geometry">
                        <mxPoint x="1403" y="335" as="targetPoint"/>
                        <Array as="points">
                            <mxPoint x="1400" y="345"/>
                        </Array>
                    </mxGeometry>
                </mxCell>
                <mxCell id="1qyOkG9RnoyExfpBVUXw-10" value="change into url of default search engine with entered search term" style="whiteSpace=wrap;html=1;fontSize=13;fillColor=#33001A;fillStyle=solid;strokeWidth=2;" vertex="1" parent="1">
                    <mxGeometry x="1330" y="135" width="145" height="80" as="geometry"/>
                </mxCell>
                <mxCell id="1qyOkG9RnoyExfpBVUXw-11" value="" style="edgeStyle=none;html=1;fontSize=13;" edge="1" parent="1" source="1qyOkG9RnoyExfpBVUXw-12" target="1qyOkG9RnoyExfpBVUXw-18">
                    <mxGeometry relative="1" as="geometry"/>
                </mxCell>
                <mxCell id="1qyOkG9RnoyExfpBVUXw-12" value="Read Response header&lt;br&gt;&lt;br&gt;(also a little bit of payload or few bytes)" style="whiteSpace=wrap;html=1;fontSize=13;fillColor=#33001A;fillStyle=solid;strokeWidth=2;" vertex="1" parent="1">
                    <mxGeometry x="1117.5" y="455" width="155" height="90" as="geometry"/>
                </mxCell>
                <mxCell id="1qyOkG9RnoyExfpBVUXw-13" value="Yes" style="text;html=1;align=center;verticalAlign=middle;resizable=0;points=[];autosize=1;strokeColor=none;fillColor=none;fontSize=13;" vertex="1" parent="1">
                    <mxGeometry x="1140" y="250" width="40" height="30" as="geometry"/>
                </mxCell>
                <mxCell id="1qyOkG9RnoyExfpBVUXw-14" value="No" style="text;html=1;align=center;verticalAlign=middle;resizable=0;points=[];autosize=1;strokeColor=none;fillColor=none;fontSize=13;" vertex="1" parent="1">
                    <mxGeometry x="1260" y="145" width="40" height="30" as="geometry"/>
                </mxCell>
                <mxCell id="1qyOkG9RnoyExfpBVUXw-15" value="" style="shape=image;verticalLabelPosition=bottom;labelBackgroundColor=default;verticalAlign=top;aspect=fixed;imageAspect=0;image=data:image/avif,AAAAIGZ0eXBhdmlmAAAAAGF2aWZtaWYxbWlhZk1BMUIAAA1HbWV0YQAAAAAAAAAoaGRscgAAAAAAAAAAcGljdAAAAAAAAAAAAAAAAGxpYmF2aWYAAAAADnBpdG0AAAAAAAEAAAAeaWxvYwAAAABEAAABAAEAAAABAAANbwAAVwQAAAAoaWluZgAAAAAAAQAAABppbmZlAgAAAAABAABhdjAxQ29sb3IAAAAMv2lwcnAAAAyfaXBjbwAAABRpc3BlAAAAAAAAA00AAAGqAAAAEHBpeGkAAAAAAwgICAAAAAxhdjFDgQQMAAAADFRjb2xycHJvZgAADEhMaW5vAhAAAG1udHJSR0IgWFlaIAfOAAIACQAGADEAAGFjc3BNU0ZUAAAAAElFQyBzUkdCAAAAAAAAAAAAAAAAAAD21gABAAAAANMtSFAgIAAAAAAAAAAAAAAAAAAAAAAAAAAAAAAAAAAAAAAAAAAAAAAAAAAAAAAAAAAAAAAAEWNwcnQAAAFQAAAAM2Rlc2MAAAGEAAAAbHd0cHQAAAHwAAAAFGJrcHQAAAIEAAAAFHJYWVoAAAIYAAAAFGdYWVoAAAIsAAAAFGJYWVoAAAJAAAAAFGRtbmQAAAJUAAAAcGRtZGQAAALEAAAAiHZ1ZWQAAANMAAAAhnZpZXcAAAPUAAAAJGx1bWkAAAP4AAAAFG1lYXMAAAQMAAAAJHRlY2gAAAQwAAAADHJUUkMAAAQ8AAAIDGdUUkMAAAQ8AAAIDGJUUkMAAAQ8AAAIDHRleHQAAAAAQ29weXJpZ2h0IChjKSAxOTk4IEhld2xldHQtUGFja2FyZCBDb21wYW55AABkZXNjAAAAAAAAABJzUkdCIElFQzYxOTY2LTIuMQAAAAAAAAAAAAAAEnNSR0IgSUVDNjE5NjYtMi4xAAAAAAAAAAAAAAAAAAAAAAAAAAAAAAAAAAAAAAAAAAAAAAAAAAAAAAAAAAAAAAAAAABYWVogAAAAAAAA81EAAQAAAAEWzFhZWiAAAAAAAAAAAAAAAAAAAAAAWFlaIAAAAAAAAG+iAAA49QAAA5BYWVogAAAAAAAAYpkAALeFAAAY2lhZWiAAAAAAAAAkoAAAD4QAALbPZGVzYwAAAAAAAAAWSUVDIGh0dHA6Ly93d3cuaWVjLmNoAAAAAAAAAAAAAAAWSUVDIGh0dHA6Ly93d3cuaWVjLmNoAAAAAAAAAAAAAAAAAAAAAAAAAAAAAAAAAAAAAAAAAAAAAAAAAAAAAAAAAAAAAGRlc2MAAAAAAAAALklFQyA2MTk2Ni0yLjEgRGVmYXVsdCBSR0IgY29sb3VyIHNwYWNlIC0gc1JHQgAAAAAAAAAAAAAALklFQyA2MTk2Ni0yLjEgRGVmYXVsdCBSR0IgY29sb3VyIHNwYWNlIC0gc1JHQgAAAAAAAAAAAAAAAAAAAAAAAAAAAABkZXNjAAAAAAAAACxSZWZlcmVuY2UgVmlld2luZyBDb25kaXRpb24gaW4gSUVDNjE5NjYtMi4xAAAAAAAAAAAAAAAsUmVmZXJlbmNlIFZpZXdpbmcgQ29uZGl0aW9uIGluIElFQzYxOTY2LTIuMQAAAAAAAAAAAAAAAAAAAAAAAAAAAAAAAAAAdmlldwAAAAAAE6T+ABRfLgAQzxQAA+3MAAQTCwADXJ4AAAABWFlaIAAAAAAATAlWAFAAAABXH+dtZWFzAAAAAAAAAAEAAAAAAAAAAAAAAAAAAAAAAAACjwAAAAJzaWcgAAAAAENSVCBjdXJ2AAAAAAAABAAAAAAFAAoADwAUABkAHgAjACgALQAyADcAOwBAAEUASgBPAFQAWQBeAGMAaABtAHIAdwB8AIEAhgCLAJAAlQCaAJ8ApACpAK4AsgC3ALwAwQDGAMsA0ADVANsA4ADlAOsA8AD2APsBAQEHAQ0BEwEZAR8BJQErATIBOAE+AUUBTAFSAVkBYAFnAW4BdQF8AYMBiwGSAZoBoQGpAbEBuQHBAckB0QHZAeEB6QHyAfoCAwIMAhQCHQImAi8COAJBAksCVAJdAmcCcQJ6AoQCjgKYAqICrAK2AsECywLVAuAC6wL1AwADCwMWAyEDLQM4A0MDTwNaA2YDcgN+A4oDlgOiA64DugPHA9MD4APsA/kEBgQTBCAELQQ7BEgEVQRjBHEEfgSMBJoEqAS2BMQE0wThBPAE/gUNBRwFKwU6BUkFWAVnBXcFhgWWBaYFtQXFBdUF5QX2BgYGFgYnBjcGSAZZBmoGewaMBp0GrwbABtEG4wb1BwcHGQcrBz0HTwdhB3QHhgeZB6wHvwfSB+UH+AgLCB8IMghGCFoIbgiCCJYIqgi+CNII5wj7CRAJJQk6CU8JZAl5CY8JpAm6Cc8J5Qn7ChEKJwo9ClQKagqBCpgKrgrFCtwK8wsLCyILOQtRC2kLgAuYC7ALyAvhC/kMEgwqDEMMXAx1DI4MpwzADNkM8w0NDSYNQA1aDXQNjg2pDcMN3g34DhMOLg5JDmQOfw6bDrYO0g7uDwkPJQ9BD14Peg+WD7MPzw/sEAkQJhBDEGEQfhCbELkQ1xD1ERMRMRFPEW0RjBGqEckR6BIHEiYSRRJkEoQSoxLDEuMTAxMjE0MTYxODE6QTxRPlFAYUJxRJFGoUixStFM4U8BUSFTQVVhV4FZsVvRXgFgMWJhZJFmwWjxayFtYW+hcdF0EXZReJF64X0hf3GBsYQBhlGIoYrxjVGPoZIBlFGWsZkRm3Gd0aBBoqGlEadxqeGsUa7BsUGzsbYxuKG7Ib2hwCHCocUhx7HKMczBz1HR4dRx1wHZkdwx3sHhYeQB5qHpQevh7pHxMfPh9pH5Qfvx/qIBUgQSBsIJggxCDwIRwhSCF1IaEhziH7IiciVSKCIq8i3SMKIzgjZiOUI8Ij8CQfJE0kfCSrJNolCSU4JWgllyXHJfcmJyZXJocmtyboJxgnSSd6J6sn3CgNKD8ocSiiKNQpBik4KWspnSnQKgIqNSpoKpsqzysCKzYraSudK9EsBSw5LG4soizXLQwtQS12Last4S4WLkwugi63Lu4vJC9aL5Evxy/+MDUwbDCkMNsxEjFKMYIxujHyMioyYzKbMtQzDTNGM38zuDPxNCs0ZTSeNNg1EzVNNYc1wjX9Njc2cjauNuk3JDdgN5w31zgUOFA4jDjIOQU5Qjl/Obw5+To2OnQ6sjrvOy07azuqO+g8JzxlPKQ84z0iPWE9oT3gPiA+YD6gPuA/IT9hP6I/4kAjQGRApkDnQSlBakGsQe5CMEJyQrVC90M6Q31DwEQDREdEikTORRJFVUWaRd5GIkZnRqtG8Ec1R3tHwEgFSEtIkUjXSR1JY0mpSfBKN0p9SsRLDEtTS5pL4kwqTHJMuk0CTUpNk03cTiVObk63TwBPSU+TT91QJ1BxULtRBlFQUZtR5lIxUnxSx1MTU19TqlP2VEJUj1TbVShVdVXCVg9WXFapVvdXRFeSV+BYL1h9WMtZGllpWbhaB1pWWqZa9VtFW5Vb5Vw1XIZc1l0nXXhdyV4aXmxevV8PX2Ffs2AFYFdgqmD8YU9homH1YklinGLwY0Njl2PrZEBklGTpZT1lkmXnZj1mkmboZz1nk2fpaD9olmjsaUNpmmnxakhqn2r3a09rp2v/bFdsr20IbWBtuW4SbmtuxG8eb3hv0XArcIZw4HE6cZVx8HJLcqZzAXNdc7h0FHRwdMx1KHWFdeF2Pnabdvh3VnezeBF4bnjMeSp5iXnnekZ6pXsEe2N7wnwhfIF84X1BfaF+AX5ifsJ/I3+Ef+WAR4CogQqBa4HNgjCCkoL0g1eDuoQdhICE44VHhauGDoZyhteHO4efiASIaYjOiTOJmYn+imSKyoswi5aL/IxjjMqNMY2Yjf+OZo7OjzaPnpAGkG6Q1pE/kaiSEZJ6kuOTTZO2lCCUipT0lV+VyZY0lp+XCpd1l+CYTJi4mSSZkJn8mmia1ZtCm6+cHJyJnPedZJ3SnkCerp8dn4uf+qBpoNihR6G2oiailqMGo3aj5qRWpMelOKWpphqmi6b9p26n4KhSqMSpN6mpqhyqj6sCq3Wr6axcrNCtRK24ri2uoa8Wr4uwALB1sOqxYLHWskuywrM4s660JbSctRO1irYBtnm28Ldot+C4WbjRuUq5wro7urW7LrunvCG8m70VvY++Cr6Evv+/er/1wHDA7MFnwePCX8Lbw1jD1MRRxM7FS8XIxkbGw8dBx7/IPci8yTrJuco4yrfLNsu2zDXMtc01zbXONs62zzfPuNA50LrRPNG+0j/SwdNE08bUSdTL1U7V0dZV1tjXXNfg2GTY6Nls2fHadtr724DcBdyK3RDdlt4c3qLfKd+v4DbgveFE4cziU+Lb42Pj6+Rz5PzlhOYN5pbnH+ep6DLovOlG6dDqW+rl63Dr++yG7RHtnO4o7rTvQO/M8Fjw5fFy8f/yjPMZ86f0NPTC9VD13vZt9vv3ivgZ+Kj5OPnH+lf65/t3/Af8mP0p/br+S/7c/23//wAAABNjb2xybmNseAABAA0ABoAAAAAYaXBtYQAAAAAAAAABAAEFAQKDBAUAAFcMbWRhdBIACgoZJjTNSwQENBoQMvKtARDwAMMMMUDZtcoFFI/hDPllJ7zNQRriCmCOgv0hKzu0ED2ZSSxxvr2uPpsgQYPUQ3Ij3SxEKfnC6ErczszRAsj7vscMFVIP8R6nck+GZkfJa8y3POjHHj9R6Zvn1oGacxf7o2yiYhMXH94frYDvS/5BUlKPKmO2i7v8bO6hiv+BbPmZhcFqtROydkX2266+7mfwsWVHz/CzpMFEk7hZ36nO/RDFTNTKc0TXZPucezu3VY8q/aGbWU81KQJ8rLPR7KwF3Oz0qM6/ltRzwIf7+R1A7LZWxGmqh2movyD5TAjM66HOzw77U9Xo5dgCXd+fSVABJImh9SN/xi15NSZgfIebe+mw0GFyaHijoD50uvIANaQwEupi0DNv5GrQOfqKso6E27SZozoYXAclELanAhdwAGYViQc0Y2Wdr2XZYzkoUqv95zOvKA9Bao75nNV36JaPsFzLKdYhp+jyGEngg9wkHxzpB4ztJkScwXUzY950ax1g952l3CyzLV8OL3aHl+MejJGr+gTKV2lkKPtiYN6OLaF27LertHtN99QE19f2aXCFXG1qggCob0bf24RdOL8qu9jIky25qHzuKh+jNNGJFEy6wXRDVjX2PxCl787GKVA/jYgpuSId9DTT85+UyWtFeTJssggZmwJOhTuEgqG7i27SsRTLfj+f7HDkXe7hOuzDH1xBoTqeBpzUMWgZ7HFwGaYIB2WRRLxV+H37bRlAuobh0XkZ7gCBZ69oZQMCK2FboilF6uRI5N0EeDrJNaXyvs+U6LxG9BeGnXa5LJ6SRCuRGTaE5qCG5hNH4TvCuXyl3gNge0XeD8AKCuBQ2/i+h+A6tAwRKCEjSbFJAKOmpw5qO48tXc/H/yg28LAHUjOBJD0ImVA+Lczm00XJwGpVp9WUQpxh0oDfZ6b0ttMaTwWpWdiOjMuCESkbpaqZiRIdG1zj77GlKaYpV/YCGj5dSNmQitobM55pCD523AU8vGa2l5LT2NIyPtyvhqR2ilDXlRczXyMx8sc+OwJ7z1vMSXCsI5/5IpktEcKMKTI/UMNeCBeQpdC7WlGxCH61rBeldUMqL5b/tL4ekVvMfNMIydViEzvuFyEY/ie6BbaropqgAakUN1jld3B24LKEYnPC+BqpHWMkNiWVoflnDvVIeX3FYvWb4tV4zwiNAoUKNmqE2xepEhTlV2k6Oftuj+uif2uHWTKBPMDzFbfTbyQaYcK50dursrdRXMldINKkqnB3ec739pIATQvdLaUi98LCFp0g1+5WtG/mJ8ODbNu0dgxl9YFExqtrZOAw0An8ZqE/Zpz3Q4LoO8V9F9hE50GYbaF/+SyHthmfvHyAiY6Vg3BRSlyMA2khww9+IRQirlnqKkcSc+MVREdFFuanttFXVwA+YxLbp0MoclKyeYw0UT8WqDTFboIGc8+zRXupk9bReusWLaGdQgDrpwtcp+qMqqW2kv/QEF3TEUeTDPN4hgHbRmTt6gwhcWkRnQsszhZ8EteIv/vB1DvpJ/nMBGsfQ1eq2u7iHkxa7VoHo64SHFSSj1Tzg788Q/PtOKVRXILxkmIowSRh3eWeUyP/eFGV8+aSgqiOAxzXgNiNGj0/Ly3g6IzNpfnzsq1HxHG4tpDp0uhgNt6ZDJhM95cRdOaBl0EuV5gC8Vzfi7cwA2kaYcOxFr5SJE5XC0/pRGF5TckhYX9NFbUb2EjP6U1L9jVPc4/d5VOgUBYFH3wrno6R5e/Hg4ipt1AkRzOrl44E6vhfKVIClsvoLqhZ7pF0uZLU2o1g1FIXeIHSwEKe2K9hXnf+Crzl+h2FAO3Of4/KKJ3rcB02tU+PaQlj+c9OaIFjS1L2Q6b8zgH92tn+O9qkI53dd4F5BYNkE5XQUUngKl7lW05WlEOFiw/shsM9uQHhzRgnBxKD3B8Gxx45uX9+ESHKBsKdb/njk0nMeITzL1Ow9UCskvfrnlRFwkroFufOK9lmtOT6fZpPGdds0IJNPqR4ZdhkLtx1AdHl9K2AXzwXJpRhAmqlFc3sMctI9MtS+OBUJ4iTzkcOx6tHCaUro0G8M42RVrCaZOEClzHT0wgWkv00LFmdOKZuMScvsdc24VE0kxNKb/EoyO8SWu9ubHfG5cbhrG5sFMxDxFadLTDf3SJ1LMMdquv/UF1IQceNnNhuW9gu2Qyi+NvN/JpQ11Y6lRX5bXwmxmve0+1gG9Q0FAXZgIsYtyp9uLYO5hLsQ2ZQH9Fv+YMnPjht2TMoBqdcsl6rTaMylNvAtXjtXk0TVRRTp1FJz7stt5Ek9EvEU5nQXiQ95BunzgsOp6lz9tu+BQypUGYgH8oXiXUZsWXZUaPPt8OUqWH82jb9rPKB6z0Ft6aMKaCR7m2X9i9Jm7NIQg4mcy/VTmXDEQjwgR1TwHAI8/QCsdiYIHg0fRADxYdY/HntC/wypBRkaK411/6ElBih+ht1CchItsU55ekLvGJO7bjGXURqILDQx3UeaLdDYhrG6o2M4bJrd6gHpHxqaG9Kf2SloNua3ItAkvBZkhKiIsnOTA9vjPFZDlh6AE5I2M8nwzdIbhYuytXWoXyniXZiRmiHi5SnR7u1rlXkctI45f1vPpv6dXRiB/Lj4q0UlrPPdPHMPMu+dKrOLQXjTBCv17Mb1Qy7o63klKsDqb9XPRLiTNNX592brM8v3Miio2dQKlxC4yxzZ8yVNm0mTKoTmS0PjD8jInbZw6dj5vVJCTBWJ1kQAd79Wn2Bnd94QHJEcr5wWzh/a/vbQn75I21V1ZLl5R6MtyhqrX6YQVVCxj3XtnqymFLsVfQIDtj18WKOKDVeKtyh8tWYEKywGObbjVzaqEFIZFnZ570dCghVVd2dkm3bJV+HhCII5QGrm8uhxPZRPQf/WziO0AchgnDapVUdTkq/6kG5//eH0aVaTRkdECRP5q/vo+O3GF6MkuRDqY22VBnY8wvKoz5VpQZTLX/78ctZPE4cdME+5MMfA6nJu8a4z3fcbKbO55xAMAPNsvdCvBrbSGiR/nqHSNpdB13rvNGNyq3COPvyBKrFNVp472Uf40Vl6XzIeKE+swt9wyZoIV0C1hbF+yKCrRzX4ydpcN7XrGCsC47Wjdo5qn83Ax15r2pEJ7KxnweKi/2Z8PQOzmocbdv1UKzvXBY6ltvLshkXCiK4sEfJEOQkCZsriwNlgX8HHXp9W2UEIRe0S5bA7L3sH+gJ6h6edm02DPOSDsKPQu20w8eJyk5+9YnLQhEnNsWj3G/ck1DOOmjMaroF+FqfWqEVhKQkvJpoy7ZDlz3DhQ3FwHofxwGW7a0w264L9Vzt3opoihbb6sUlCp23g4TrWPZvdyb0lBt0yY/W/ShZKX4IJ4lB4w9ovDmd9LP1LRXMPo6TuDvLwQMk2g4OLAJ40ULGbqeflih1qBQ8/m8/Q9aMCbooiUxhOlOngDCJOHqX8Q2w5IKvDL2+QvF9KDsmp/PqPDL3kbWv3fodkGCle4yowien+zbxVRhDLkTRmiX8FqcpGDqyBIKbn+a2QVFKedmXFGyvvRptDl96qgMRAvlMBAKGAcbshZaeipaK06CqaGoUuvqRC98kXEFnM/o42pgm/hZ1w7iDos32Sp4KMjzZl/OSoENJjAGxrpR1z74vP4m+kmX3QAwY1uLQYkHCgLQHi27qdPs1vt9JukmTOo/cVfQ2VT/Ez33l3Smy69UBVhQ7zP7ZA2HwmA3dPb5L5pXnzUOis71HL0YTkx6IyUFH/WDGtN8EIuRQw8WDsnRqi8JTSVckqMyEZGg5qPa8h4UEHXPQ8h0KVJAF5uqePXuJGeCQTGpav5BtA+l9gMzdUyLzrsfNjI/p3Oc7YVDTdCs+nOfK6/fivWHFH0Nvgs/pf7AjbQUUq+bt7EUvQiEkhfvSphXjM2ZtYeACabO/ca5H1y4rq5DgQyuECiylR9YpT1yOoJOvtCVCO7IK/TFuQl5fLOcglPm9xDTjmyceIqmWXhsRVPIO2apPrxEyK+5wFw4OV/JVdpgjPg+phLxdNZFjrrRfZLR9qbcUsLQdZXMkyXdnYpgqdjaGk6F9EyuciiiN+W7MNU9CRul7YdbHcY3UrPw7dECD0SIvPo6QRVhoCzPAb/TwFTScSX9MVHN4+z7yDdHbc5UDCYffod0iR5XywPhin+AQoYC7PD2I6xzPk3HMi0l6GFhuEtC6hCQEFDKA+o57M0Ovvgv1CU7IvEeJY/g9QG2u7/w2vaBl7Mdu0ZKtYLhq8DAryzzUlk9uMsfS5lVTp3U5UZ3TIl5lm1lYUZyPIy15Feyzlsz2SGIgETrrDHo8UXt76Y7+zki0vkAqpVnb1DIb1RvZeekKBdoHNtO27ID6H7143Bt6+RZg8DPLLrMP/C8/sC6HbxeWWs/u4Jl44l7iTqtP0zxNzTd3jVdYbS6VUO8466/77R52qrg3PGkj8zuyW3p7yJZJVzxe0stV+C9sCzhNc1P2otkhI4SvXeZUG2mhRd2XaKZobPno5cIrkVAcQZ8HDNf+jQo6lT8jcrqJCu8XEQg7++VidQh9MNfl/0YbGlufKOu2PJNJyRpvhfsFRb5TPuznBTC3dmDyhK/pbWUOIpjixFhb1fC42LZ2DG2jZp1CNiEgfbDnt8YitpLrqydm0PC+XhTOuoTVsx1XGNadnphO6RbHfRvQmvDK0g4cybvBr+clsOLpvdNCPqroj1q1qbK6xwvcOMNw51IWthHZjJ8Iucs8iyS3nU54aYwAb/jhB500LsEMi2f2jtn0ZAInMIXZj1a861jsV0aeXeflgIHfm29go2JQ923Hyh/FK+LvJcGVWJyugfeyXhRhrBmNkMAXu4++INGsD8UjK4HoiAt+rO0JuHBw2hcn3txjsYg8BC1D2wDamRbTeb16KbrLwZXvHMOTJ3XtwnnvIItqdAtaNsYg8htaQYLR5ReunXBFgfHuXLgvKx8j7Q9odYie4eCvBvDyeat1v/duIv4r0MJ5AnZGTLv+0wYuSjhc19eSnjeEk/x8+YPklrfZgHnUQgkI79zaQ2lZaGw9dv7jtoih2oiLEfxvybqmRdd95/RpbOujwE/N7bUpzUB0FCjhPurMAEy8Ef1gFICCjsA9tFwZ/+1OXgBQ0xW9FhEnDruTMqWxZAQxo7IlU/iRyb6IovsXFlUImvAvWgmYtwC9vIUjJNeWBaX3UpBW2Loy4ACbBOeG0o/sZjh+a/8/nC5m5Ik/gbBbqwfib7BK/6W9TVIt5prB2oG8RBqYDAgxBRV8l3K7zOb9JZkHOSbbNvmyWkkm29p6bpzgTZ8zgEt1d1Ee6GAcAVffUvAUBo+5PVYurg9sWwcIWMeRH8WZxFwbSB4+yBGldZRiziwDbH2NjaEGru9zw22vzpBtxLxFg+nozaY0Vq6yIgtm5a7erHV63GPaSS1uJGQgZ12MZjrBpAHLEfETaI9TFMKgcjkLjf49l6e5KD81zDDQ1RChl58UBFlEOqfjO+fNo6/lQAqDYiAkemIbXmc9xduNpDs2KY0DvVsOZd0CamJ/q1zh2G9ReDbJ5jPpb8MJx9phR2znTC7j2ar0EMveok+CUvGcZo8sKbmDV3Prd9u0+IgtlYX6GpexT88pxMa1Q4UfHY2+/fv7eNSiOFo0lR0bIG9aj7EcHwD/3JovggQZW9ef4hkx3yUreV0bsZNN3hBLn3utVp17lbVXXVFoUV2TIwJflzAMMG+3A3B+38ApFCX5W0GLTDh+dbbFHZwJ0FClVHPXg755ccyzjIQnivdm4JlnA3ZaFvgPbzYH5B6ehvLrENDYJQr+AvxYNDzp/l020cNpN0r4y85AhU2tGVjhJfaGD73s10ZseFQP8nHPSxFQKMyo5tId9TS+tX55SQGVZ9/55+VOekh9nQmd1BLweCh9fva0pzUz/m9aPK0PqWMZfiZeS/+D+xrKmq1HAOg5zXgh0BRimA0C5czmnnqdQlzJAPWD5mPaX/qAIkGB8mayTBdrPeN3zzQRfMSTiyJVOO57LrljJxPKCfmfb+8sRMpK2qNC/u0TL02Md9RHWXBzX38hl3fAZmhJJ9vlvEebESkGB8ulVQjjh1/OBpc/AyGvlJguutasf4AaUBGqWUa5NB/TDn9fTgJjxMVnVmmBLIy+KM63sGdrYqbNyBZD6siRl76pCMSnXMQejcfeD2Y3XfJ8YbvtgOkYeXdndQ+JKWKqVRrHJAJ4C+MJpMIpWEGCK2p4SCVCfDvDnyLXYi5u8n0539TnsjPCYO7+aFx0BxwmQDwICBRWQ3wSmovL8Q1NbTUXBGnsls6KzFHNKQSUWWyFmbnPNe7peSihYKCohCDyMgC3XXAWNNIv6znwV0ULpGUMXG+7xqYKVCCOKAcbK3WJ0SKQJ+wse2mlOsUkqRHJwnQd4ig0btfcoL95PcN/UiXVequa4oKmRjW7Ec5MCMoMdh5huhkd8z3L/KNYp9eKJRqlh9UypIQ0RHvdfEGJOMoCxdBkQcsT4WYb45wkijxZw5g8mhqFlIl8tijgaJw/6AOp2II7uiV94rdi/nP9N95TKTM/zioAWG+M8T4dsFZYGH3Z805YyPU5P6UprKWieeNRwOHEisxfO+3NzNTidOblck9MjBfTI0r4mCZOtl634qbi8BoT/AP5/f6k708w2XErbKLGa+ih1FLbNu8wCY26+TmjnoWBFw5SsiE3Gv3dfnSNOsZ17BzFuzOrj4kAM21VPmjXZMsOYOr2WvVTaaMhvpjTI2FAMrCD7I+SB+62VoidCKXGjZBOWiFZrfszbJ0XgPpTgYNa+PCppLN5CnS4v3GyRGTSxOr86AhcHsXsWm/nrHrcx049rv8bi4DphGXo9n+S/9Bve4gMIvnU6odHF2LIZo6e1ZQKwiAm7Wu8KNXHkKnXbjMttVive93PqM9CsuEUVA33f7dpYon7wxb9kUW8LBK8/sa5VHfmGZWulWitsKr7GLkIzONSdEgh6ABKmP8P2nJD3MIanBDikX2biniuKVQoHneWKPB0NNK5+F2zA1dS7ZhvPRhU+aA2WNkkYG0lKFUfL9qr+PR9h7ubOeGRoTkkmhtrhfSU4IclKLKR3P9xxxwsFoDENQd874s6W6WZMcDkNHBHX7FhLeQ7yLh2amV6cnd+loJrNtlKZOJpsG/FlpZByUxcIToBE6cibGxetLub2LPuvBbQo2EhIYvSV0044f5tJ5Cuk5v/RJzZbmTl9ZEl243IHhuBf8fA99EXwVYnChcT/wwfZLf8MRfKET4BJD6o4yAEIAzvghfzaarVUofMNE+JX5whoadRyl35s+EB7U7jpmxoDSNMyRGO7w+eYhHWWoXQElIw9r9tNF7AkyhPYSN6I56ztJ18/HTFm190v6vmgV0E5Em25lgNIhegHQplt9eb/w7oTpnezukWZSlkPkEsPYGX42qr0bLhZyPAsQh+WoZZ0Q9PPtSae6MKRATA5lH4FkjDXh0K3Hlqzzq1op/nixJjHrCl9Ff4v7fqgvnkpJkYjLNtFgvwLOGujo4SPxI7TpnTgiEdXzOOAHlZWtMfsL1F6oFjm6gdCix0OIbg9ulY9S6zrXt7RU8o/aoAYXuQ7yUqD6k7aEfLpU1FM3XW5sGVzcZi2zPoOPNABllrt2yzROQV6IQGMKUWkNEkHzIaoGwq6K28S0aj2/2L0+jWVWSE1ghLxwwrRRDXK/nU7V+w+wj3ogPlDIpdRtfWYJkzlvCipNBmATTu6cy1uMcTHzR4IkWoZRZeIznkwWsG+iSLGurfxInlQVwCWNC/ObgCBWmb/bSKnOm52yXDBuZXoCCpu6HVXgCxjPHjCNmW/gX2vD0bF11p2bX/MJFTl7Xwdjah7aQGRW3KWSL/+VujxcWq/bPFPIypUfyp3xwBbTHv6KYg6xaEPJ0hkBMWEwD/XS4Nn0AtKZ5RjoBH+8xkZRj9h/T6tD+AZ/UPsOwn1TS3GZqH1Dx73OW6I/qQa1TZnuS/HGvgpi5cpeHFrGsw2M+b/1gW0SUAGR+vekpL/bUSRYshEJ36eCuBCwP7MHh8PRZE36MYFQRnsvLSAq//BOgGVW9DYk3Zip2xSJKefgerIMIHDuivZVb9JppFnMtMy0FecHX+3qLn9QDQUh8uZozYtvetZeND78YYkViJ8zopQpDA7yil6qc6UHI9V2UhsXEQwxjgucrX4UwOzxlg5go+8EMZFiQPRRYuh9frM3D+5zRPyvaNs5mi3S9hGMgUa9tBVpzk3ItyYfyXwPkGIuR+WMvKbJpmv+eQd1qqAAbteEfjmqcVUO5EozFzhFQew4DMmNCdTBhb2esvRPkiioLYNcht5bzyrn6HvwmaSd+u3/7DEIgOsCYQrXdnlg4bLanpBOeiyrd9ftnftZX/yGyJQBav7nk2/8kkdBuw58asqfX/IVzVlY58b+X5WRPaWEmGTOzsDeT/WuajijBwMdfk4VukbUIGYq6mcxXlAWWjua6B66g4HyzgQ8YviAIRFp8BVgjNN3i2dBVeUe4TxS9YBvwOrbeMwHSoATATmuKNBDwPhtq0uhTn43c//3OtsYw6eY3sk9F29sd+sgfuyg6bWbr84YiT9n/pOOwSONmpi9fGjZ7sIejOmLd42fA9t4pRAb1MADgGqXqQYWConJuI0M67vqzLhyzCc4Pg3epSKl4m2FWz/EQe4QkUWVk4KJgRyBHC30feJPK0IpLrhKK8TtbCTrLKfCIY4Fai2rU2VctUnmsDFvRwE54hMP+urn+SA3PhaXq9DOeWeEuSo8ee8sugRviCwRKFr6DD/+AFUizsX0WRYKEI/MAzHikUTu/KI9DA8paq8pNEo8PwzUjOVPQ8sPXBK2Qwb+CAKebGQrLDlD3FHI4jdzdbE5cSyW0/tg2LBzjDfNTdSfLEb96321qCDrCfLJQsOy1/udm8i7FQgLh2SwLJd9CBGPAGW7XH9wgoz9//MWBfCx0y5f1pu8Nz3mBe0P0PtlQ57GcGAVlrDOcRlA7eT0RA7VuKmDetaeUe2S7xbu+9VKNr3mWJbWWhWdIWeCZe00o/dPJ7RsArN6xuK0bAdDf+JMIB4uegUMAOIDWHCvYXVU/z6fQoDTEEdBpeGek/MeSotsfE2MQH81hmyQCdKZD/rBSOhtHQKwwvfbFPfQvWSkVCTcrIt7w7W1XhUK4XP6/7d3h/Rj4iEnhwk6l3/H0EuA5+FQGYFkQe29wejEz2PiTo/DfT9p0wSyc0tGdICPmFUL/CKvIwyTYDnRzliiLS8nuZSmkR9dlh9Oi7/0TAIVZ/8dDl8rFd4FQOFcJ2jR2Zhb5MbpC7vewE1snPflTK6jIM3drcjoS0b2Gl3ZWqiWmXB3nRvZBcanL85dXQnkfVwGs0snK0P+I137cZlVZcpTF9f/TFkuzlHhBiiWtr9qIvhGARNhoeQFCrq62G2G4RDgfEFusaHYXv0Z1bJ21JWyLvY/AYeHxIWVsRi6i55q6KpqHXTistb1p+VnCSVCz9ZJYBKEubqITQbf0ZSrW3k/aWbwgF+kHgSbCI+kpjk5ayB5uTTEQRwKTUj7E7D9EvT4+O9sRimYN4i0RbhY3W55kZbapJvAPnRxSKTz4nEAN5xY0yRr7QrZAO5tvCdiyYtwBph0f7r817KZgDXYevltHQCEp4dkEC59oqOQd79G/WtfZIuLWsQ0dXQWuzyVk9Azp6KqjYGzR29Ym+22lPvSfmsE21aod0magdmqhQM1nAo9kw7uzakA/UjNbdltazAAqRAQBK2H8fvsjxn8ib4YiV2riYUYbM1EbwzoyA5WdGapT4pJMBPiGPJhdow/vCqsg4FNtI+e3aL/ovYAIDfjWACGDPlbDGPmK/AKoaPZ3kKlFCwLEaQTp9bM9wow+YWAXXmSqtCzNkRQDsrRzb1tFDAiAo1cnclxRxzRlco68ENHQViTaq8+CoWQE5DOgntvy1HY3f6M90SHVdJddR6AXkZiuh76KBW39N3YRrugrzBVMVjDBdpzwz0Yw2QirMnnxzFdZrdvRw3cSsV/YkEWNxV9cfYB9XMsWv71tUbViyFftoFS9vQ3wAxOUIzpJ6RvQ3YJJfEYCFkSmIbUzEVDxNcfY9ntdSQhFbpVaCDnwSQpESt7HNQaeeAzEqQlhzKihL4N359QoJ2RATIqQQcauuWFONViQ+ZvQpjEabEV+Tkv2wht0daCHpeskRoeD09sPbsj0LUMm2VxmH8YE1pLLjvcgbQ4tReUGB7EgL9sPgn597dAOGsSjiSV6Ut0netNQjCTjEm39PKVVttfi8XFprOvO2BaH9EEq3Zu/7YCj9cUHSx9eSFrJjeyDrZLkcKInGYrAnubt4xthUTr1nnGN3+p/gdprXpsMPo1RpRzZR0LdxfT0WANt+/L8WGrZnHoSkbM4Pt7y6DvPht0z905TG+kGUYCZ3fBArTmOYY2KBNSWIYJlT3dHCwNXFkkP9VgmcRYno2S/tuw5TC0T5r3bqAjs5HVNClcvp43JplDKI424rXSnVxKS3JoSF+f6uHOncOsmEmxh2ix5v15/EpGSCg/SfinRF+FVccahknQLPWR6DKtwnxrcFNS7ceceqehbOfgIsNpHhNYzwgfM9EG3vibprLRtvsLmYvYk3qFUpTOHYpBhvn8QKBRRUe+oo8CrzdxYWo72jzzGcXLGYGQx8p574alUWlWKngbcTMgwzybwgk8cdqO6hzs8DkrFhAtSFl2CQZJtFUFfX/2Gr0i/OdaN9SFvkOsQ3bv9vw1AU8clD/G0dqZTMGeCnsOYzt2kS/ZMhFd85dnGYYGqk46Nh294MvKME5UXTRedFNAcxwD3oOrVK6y/JVxahN2sGUv7okmATOkvFOi39P3KWUkR8x04xF+KkB3SRBvG0yTlGwNBS9oRUchcR7cBr6lULYCRVEv3w7NrxS2VqoIEBOksZHQRs6H18kNuvZ4ExvEOqwXUK+49gxxd9H3+KPAYUwnEk875XdpKqAYtfHVLtJS8f9HDN/pBej3l60MjckWGiZ9lr5GUvljZk2gtbEQg0wci7HyS5bhgM1NQpgbYACJEgwDjo/IbZF6K/L69cMnCRWcNgq2gs6z3Y4umrKAY25/sKvVHMtzDOcNgIXHZMzv/AW4XwvOeB/w7W7vMHhFwiFFh4St0p3C9gMAFUwa09YAYUKmjps6ZM0MGkw6o2q1icJInCSA/ctlyMG9HiuYbnWbzI9iMUuN0HaHl2W0GUmRcL1HzA2uQcQxWX/nL8lHqI/gVKQXotxmFssDzN+GF35R0IvDyRz/7gSDRojIK0x6vIRwvaaZniEfofqMgSNPXjjMa9ibVhmQ6IMGBaoaiTqtHAn5FYvGu57kAELLDQE3k0YMIUKQaKg653FFrTEL0UYFwOFbt2TwLW/3pXrnG6cbYFrn35YnU+ZLJWkRw66wdkZY8HY/5weV9HAXad5uO92BLshNQHEw5supa2CHTGtTi/CuUShjrda+a0vR1q6ohURHrmx97rAoacAZy4k8MJGb5CisqghTfQevAFs1hKzH5Byn97fAMHTT4r2RUTf566dSw7oD///G4xgXxDCtFQ09okprvaStyU+cqa9lUo/GIBVEPxHki+xOSe9zzA2UVUEmTN5J7MMxhPjrUgJ3T5AdDZoKboRNAWMuW8pj6jvIGOhetGddmxER7TDHAkvrbjgrAX2U5osiyN+z3m7g1zrd8SX/Y2UmBwHY2KMjZZJO8xKRaSR2delQiW9vlgjRARI9eeZt115SQDl5WFfVkavZwMZSt+saxBs3ue66Xj7yvcCHsv419/d22U3+IYMggU5B+yCObaU7j6waQHOTj5bZA5IStp0pc/SH0pnOXaZKY8kLFybPSKZSRjp65HhmkOc+hkNJ6kRS39cvftURRQiXpeVaqiIPOJ+jWGF7EyrBwtfEWaFFMeFSwgSS4k9pdaJy6Z7Y1BPwOl1mjERQNVv0Em1DBDqMlG5AH67L0BnjihKTKNGMRjlTCib7Z6c7/OEBEgiI9LwDxFOP3KamMOWO5kYaKlstwp+gDoxP0CFNmlPgt2OVLTNBsPLR0s7+LXYWM1v6EYSZJV9e0/UJcU3rze7bUXW8GPkIkz9X3amb06KTO21Rddn7gpBjlO+/b/rJgXeJsF2oaw263pYwzk/bQwIc5/pnlfYnK71WHnc/pweJG73RFYmQwwkM/EsnvzQVQ7H6hTni/Q7SswSSOYEWVVrXoQvCZZhn4hajAF+Reg7xZY8+0RqhT+1uYLLzebFuZjv/gD9mPany5m6ZlxkrdQMKVn3UzhqT15rIBRuoMzwx/m7m1Iumz6d4hFohYFqNelv8B/Irp8iVJQzqnQSXupYIJLZEnue8AYiKTf5pzfg+/PFLcMSllU2fRF9LciEE3RRbHiiizIQU+gQH+LW1D5/sqjV92ldc3hr2uKzZ7Aek4fMEKDRJnr029tYUgguiieujkbiIZmLuVk9q9LRYEKySqd6RaD1gCSMqMNB0O+yiqiHtgOmZTD+/xRyxjwsBMqIWLLWJlJlfxK0CrbfJnasArYC0Bu4GIiH6uMeuzCvv15DKO8KfEkPjRKOyqh1CwHnsb/Of44FEahpnTvM4qOsEyXmdJISZ3hjyXh/G30LvHwicIfjonB+32ppQPfSKm4x6ZmtHgEFMFWdo4KXQsp3AU+y7oelkiY5vZ8ZbLgxZV2utCnX1nVYLIDlDxndieawF20N7/QuZ9o3BnPzy5hcQ+6BksdFFeG2RaaySsH+7aAk3kgD7hIYAJElr8bQV6QzAehTZTQCwQHAQgNgvANdMKOxlaJmozM/yHjphjxmsvuXdTsezlpD2uFqP4pZS+QrM2P/kqheHAs6mLHJHMj9VSiUfsHAvyms3xEhsu92+iIOjqaJw2EuOjsdfAYTV9zWQFrWLVPhuDn2+Sjlf9w5IqQ1n8V7pE68/RRgUQOP3mc4QJwAuZn8TO5rgTXNLwVgkdoW0GAjsQjswcPAnRksR3iqoD5q2Xz4AQy2TaCrraj6CFaI/mgRlC27S6n6JPGsbmDuBhlP/8f7WkbJ5f8stA1CA3Zg6wbt9I/BpZJzTgqcj41HI6r/LQqF2/o9G1IaUPYdR7E7UeNwovNSJmwNjs04/ti7Ce1zy+xlC6APnfV4e6sEkbDbOOKF3UZZwClpcgmvi18e9uXXbQnnv/EtWIysTfxb1rF3k/AFTKGfhAX/aEH7XlVm3lhjMu4o/UqOAnwcm+v/o1LYDn2F3tN26NOmARJgU1sznuHab3X+sflefcODoikBY3bSJUSix5YO8MOU7tao271OVfJM8YeZ82Tj8FmgWakcUzIv7nzYhh66KA4qa/pUifKn/QiYsj6XX5LfpDcKtNLX7baBIxgmddTnbJhEjfHD1yqM/8CDJS38iZ2foyX0PKtdhuX15MyocHhhXe45QGv10/DKWzdztG4khKJfOqXk4dT0aQ6dRqU7vsTqh9cJPwhf+4nfSyOGyAAiPn0OnOPF6TiEqGT2Mrrmffe0ZYnC0l5yWImHvVkU0nOoit5XFvRmPfLTz4EmpF0oSKW/CfmW70OEVos9iCpt+6AXPMaMT1S+XVCCTcVCiXVV7+YluKLaafLkNKI0WpIHqOceFYVKuq6zJbMJe+5C1UB8HaY/bcYKyNYYXklUuGmbwBRojcw9YQ86sDCeAVHj7nS9FwRqZ+QSB3t7ANRoyucQZwvGk/NfDt0/nHXoEnlDfMXuE2BIeRMdCuwD2ASTlyUM5G5hf5xppEl/Jk+tltgBcdh4kjuXSmOzhwlMSc9pcM0lIkzTfubUUSYSS1NbpFw/KkpcP4XWixvLguInRoRD+mwv6W1Q3eMKIPR6u086HiMcNpJ1UZe4FMoMxpKS13WVjnhh9TkIG0xkkOB3UJ79HTDvwZnrytTc+xiEGpzmahWseYbe3sm29OmE6aOZJWCkogwQQQ+P80XH19DWjc5d5IHS06HY7qptTmuG5o92egghRC1stWUOn8ypA0zc6/DH+hev4NFkP1R64T/ubLSLUkV3EluVERjb8CBq4USW4rO8eVMwUR76NVuUPKbJ3ThdKAToVe7PD+uXYmi5sOdHBzbVmf2ELsunyh03qvhvVot40mODUZ+mzOaq35s11QvokKqHaS24NJMEe7qB+6oXNs59Qq0ooxtRut7xADGhgeQzJL7LCdXBWeHw/d+S3YII1OuD0n98IdesUyrzorp4CMaxOIosfkBE/dJ5A1ne+/B6Bm3ktRudFdM572ENY4Y6HdwmIv74dhhjnay5vZD9Dh3yTdCc84o5RZoa9fQA/J8xWVwQj7h1T5kg0JdJFLcVtunEEsDLFfeH/9eVd8NbLrk8XAuCLjpf4LZV7aapTRhuTn/9MHzQnuOGjHOvqq5Ce4ekEZUnAI4hkXapOTzWH4Kmt++6ztUIuwpk0K7wLBwE68TJjW4WqnOmM7AgLls7aSa3IReO7XtqpS6nVxhlaM+1eCivYk+nKh8flHq7TkRHtmMLyUMz8TahPuRx2+GaElm7LB9cNn1k52L/71boWUMn9/mpyhsZEQTLsEK7y6TC6j+nGqTPRk+P8VaO5rh58Q1XRYaeJrprSZZywpjsiMtA/RHcb+E7psxWlNV8VwWynR8YPMO3FQQi1exzjNOAlw4QUAIw92AqlR8DkzIfeDDGm9EvqpZTWn8v6/FWs4qzEUZ9tEM0yqVH9rNjAYrtpOtO6Q7iFKsmUTIvJvvDmIZ4pKp8d7E/TjGVA6g4DPzbamkQKt/ULMVa5OrXwSPBi2zwZEfb78BMik27GXYtKE2UcTCFu2ZkOThwMZa9qjbxKFB0DRw2spzDcMAQxf5JA1JzgMzMY9JHH+cE3dE12qlPFIIU5ZrHmRxrrlBd2rjsa7xtb0DOTcFXtH0nhtkCAKQJwhzBlSwMGZ1LCMeVtWTDOSSswyvG11EB4DPaXrm8e3jztt2uKOnXT4wP9H5M8h9d6JEFdiIO9grj4ZMb3YP4Euzpz9hxmT/ZvhLvtziWJvS3YWMLEhsQVG2Ew1V294jzi4VES43EeoodMsS9QFpiP32v4Q+ovPgH1TNEofR7csxk0vui0lGTd1qo2RQWiDieCgB8yRDxfyR4cae90vUDicJSvx4tUcaZ659qwpNGL2gA9q8Db/vuwY7m/6rKhAHdByWhNBnCOuWpC8N9/YdSlavn31uWnf0Mz0MuYXnbRIGfjY7r/J1QrI70CnRRlFuamBt/n2GL/IQWKxFK/7czKxip51o7PoP+nmIxsJAzosgW0r/+29UxhKUCJ9cp3iuLnv/C14puxm+azoe2hxv5S6Z6npQ2VMxPvLiZiO28Ig71iIXLsd2iZYAxbO+q8QPy3WHj4lj9D3t4+ZCobTDDrXk+fd1vr20OU7dISsco57q9YcaRxUTxaBQj+6jFamj2O/Hi9b0NxF2WKu+EqW3GwPSW7qZe6qrfComvwtpNqLGBDrTqoFtG3ulAWeVev+Y7//Vvr+yx2Jemt83DPqxgrZkG94CEL/flCoGgCvbc/+FgfaisWv1YWuWJG3lTRVvY1/XDd1MjbDj/P4iuzLJVdtl04I6K9/yICVhtGhW3l5YUefZEL+f98TlGgbCXbEXaezQgi54sOq44TUQliSgaQgpYxJ8y0JYaO0qlkt3670RXohtxG+oNH0s+UguUfpI333AABEtUPiNiemoDbelyBnCPuGTsek2GV2BVVEZOdb9wcL9is30k/f22N1uawHrltRjROpMzBFnirKJTvlHwDJri4PCv3emQRI0Si+w+a3/fU8PG0M8s/5OSJ3yHu8ZjeJZReYmR8R/3C2SyO0Zau1OpVK8IEiGPJruMC+FIsWUfk6IIpLsebzsLv/iUyIjxEvWvsmJTX1xXO8ZLpQSmX1Y2g/Afl2gu6agP9Bk3iOmvygng9QePXFeegnOnU+l9LI6biDa0i6Co53zB19jO1N0jHdf0YMarL1JlLynGC+cTic3B4BYR0DnC3umzaQ6KF2NvZoyCLn/01QEKtcVjdlN8D1qWl1zXH+eex+9dCMogWSjr0Ll9eo/E3pZfOnSw+mR6sxsv6Jr3SUv7yEIn/PjYDSIYdhDAxiI3IxUekEjRkLyGdO6ZqrPRg0egVjgwZSIe/nFrr1nQy/BNqXDfsSaa3TCcfvu5jaHAhpzjP/////////////yMtSBEVpM7ULD/W2ZDubhWxQplcl0T6bTNZ+2x8QG8clRAlv04IDeYU1badR+wPMOLXpXSiXqsdAGgOkYmgB4K9v463Nn0mMXNmVR+e4jSGFo8+MibbVKgCQn/+G2nEIEJ1gZ715MwazlLRJQYLxiqvTYwPPO1LkC/7pDzBv26WPjU2LE7dNMPHSMiXIvXFBfWLL4q3GeMS7PFS9O6raoO9S8IRlHejLL8zC8JFQqeVlSbuI/nfWXhlf7v9lnRq0sAkm/5yPVpwlaJACAuvVBKGoSvfkTqSMBoOGnG/NRy7fnOvqbUuCDvK+m39A4AHpYL+VRn3JSFfbFmePs6mb2LREO9R7Df8g8AfiDybY1CnpjNnyFG0+zK8mzOrjfwz/R7KEG/q8Ty7JU13VpTWr1FSdmegXNBRJhpIFJoxRbx8qIz5MKktp7TlggUeYw5SQN8cuGUgJ8muSuXJJfFH+iZhiIyoZr5t/ukfcI2iqGO2hQIH9CzMhWgGM9gd2yCArN5xMwfLAFgRnzDFOH/aP6VMgbyXUvR//////////////4lAbUYtdy4bZKVyFqGv4DtGXWCxn+cAfMy+73Q5HOLm/HLQy6+QuHP624/LjjgVgNjsCePtwiuSgTAfJezpu7WdQLDpv6rHAPuXn4XnB4vxkI4GdTvgfsRRwUZ08DOkrHCGrG3pVSokjJXiIUdMAYCdGURxrK3etjLdSP/m06UMBTAbXztwIyvyi8IO0BUxqMOsEgfWAjRDYWhdfXBIi0Yqaw3IGrzKBzzZs//f7nIpZ36PmLtfhPMNbiJ0FvUL6dLp+tezTNvLC/+o4Ngp3f6vjz2fHXA8OVfikm/+vQLTVMPQVLOuNgHiu+xOxZHe38s2QYFLQl52aHqyDPtyGZlkVFHwp+ogXXvD1JrbTxwHPAWmKNBufEzyJVz1AT/TO3y/6sosVJzQ0Yz+AxcqUmpCjrYK3qm56vYA3ZrjrwBsqx+2J2RvlYaM5jXVpayzRxlSpbrZ1Pwl5ggXERUL++8mIW0SZm8IymW8mZXi+7CoIE0ItYe3pI7dT0XWx4Ib9MXGWzBMa5getyPlCxvBS9zjpowuPyySOP8mV4ArPfE/jRH+1ebR+TAX5KsMUNgCaxntXiWkjWmtI/KfKSMm+SKc2NseZm2vHiTbFBEls2GNoVobx3AY/Ghu2kFlJ08y/pxm2ByLx+bbpjO2enp3Q/csbg37OIqfoZs31leUvF5FZv58Inem3A9hXDO+68HjbezH6XLQjjiyE0e2E64rxpUWPH/9ViKd6kcAaC6rz5O6YOvc9NNsfM81rTgc4EVbvmb/6lcZJnZkfoarz4SX+F9MLg2dBjg/bX/+29jnnBvSY+zP+lvt254q7x9r6aypLqw1zpmdYAhI31gOO+Nsl9lE49deFeV8qMxD8iGQpE5IhEZdvJ5OS4l6UGIYxtFOrw95vKpWhgyBvf7flSe0bSBLJiTfKP92+RuMsqWfUo4yVicgZvnRnHhBdYqE+Zr1pwqLWpYRiThdjUOXEukP6hjL7FEMW078cKOabcGsSIcpvaBwRR7iLLVi/O/ID6uL2Aq35sb6ZF3+7jwI12WxMsQNDIyJZbfr9/zZxJmPITJPZDFD+3bA2vMvPUZIncUHjHNI1FJaNDNcG5pzja+Gw1Frgcxduv/zCeTqIwmG+x/IdT9f9vgdcJNDimsJwdw04fY4oO5GXzjys41j/0kNb4I6iHbG7QqR/Vh4XLz7DxXY1qls4yZ2dN67IStt7A93/Kh95jYXN9OsCaVJp7rfPH8J/Oow/maFP2+qIKI8l9LwHjWLp7TU6Ccbz/OBpj8uSX4CaumLiCj9ffcVgNbWmnSWiXOxLn6/UeT52uKSmVS0tsY4lqyNiKFzODeBDJmuGFNES2SH+AdIR6pJfPJvhCs7bG65d8eLy733rEght7vd0/LTLHs+g59RLMcCJyCMfVgEJdcc4/k2Uq9R9vuDVQv2vQPm1iwegDOIFs2aHi6nQka8sTJ1Gjx3RKO7JTpGpOq3N3eJQzgc4OJrSCsCC1oFy9//p3J1STcqN45pN0fq29iPLeFz/xBcwlUHEVvflDCb2EET1SypXDnbVFfIHrsSPOd3s3KVwDGQWmjy+8dDQDAoTONwcFsN1GrH13ooAh0LAiP6jU4+foJScDAEQAsE7kkAlilUFv//KWzfp8Xtc3vgRNnqw99245mfV6jOD254HS7OqEeBRXWVn5cIWjm6py69Z/APU9kBM4fQlNyh/f8zH2gjJF6/zWst9vtAmvZSkqnzMBmJYuqQwfzbMeLPqns4nJAMuhyhGlnE3YTL2q1aIsad+Cn/bb6rz/dbfmIwSsDkhPs+vCChInKOUk1yLCisLJF8OUH/J7cTcgml+RogEPtThQORmdZ9/uZLKnhZf8EKzsPHMCHo3yQ9trv8VBr3lBs8BKQVvf18HKmhuyoYwjbr6b43pZuMiBUZUXAsz4uH8RUsUOrFNw8AB/P8oPGKjvlw+I4lwbSJxY6eSiIIlNr35Yk1YT8V7RzNHRmVTo+1aLbGKSPenJC1O7AkIsMc9V4m1FuvraLWuZ9ww7t43hiuAWm6ETltmG0FMjY9DAFyXKzKrxoNdluRtEo0ggB9ewtP4UzN+BCp4rUh474shE/1z2Br2HdSiMtDETnRcQhouhnOB2EUwf4SxhpNpCLoNa0YFSzhMcapIlBg9CZyarKKs8uU9H+Hseyj5cP54zFtwRnxCllpg5cRQs9PS23uAnvMGu2SR42YqCJsZqO4cLHTxyhjsE+3QFRjfcL40YiCcOeP3/+2XkmwaCd2v1BUUev+gEDOz/woXT2L5ZBJ7SxdGrnN0WqoXnyR3pkwhxNYJzYJoJr8yMKUJOQDLEKqCmctWp3ISnToL2JOeVPmB95d7ySQPQy/SF8JDZcamHRVl9mmfqI+o4Df2UAuSJAVi1PJ/69qqa7qleHJOySaOJ7EzNmbd3w9XgVfY/GMcoMFWFhz3L67JKnEd+QTuuzGHJOjRYIs0mUnGOM5yOU+NKdmYc/dOjT96M5myTJo2YFxk435FrplSRVFKNOqhKbsuSO3AmBC/E5Grze65ucjAa+y0uyRwrMDascRp6VzZxHNeK8lvdyf2VaNhGh+OErYEEsI5w3p4SAc3vzdAtiGJ2F+HjwuLaHMiyk006d42qJFeILYJWsLQEyggAZOXC9r9KQj5rEQhB4IC6CXHFcFE4wXopkfxfkzDtK49GQNUoUf+N4B5oOBUHNYaTGZrB/2SNzsCkOLI9G593JmsPvrBsEQFqvlVAcP6Vz/F8pTUNofHirFPgV4caj0dWAlfOHi8N9jJxOXYstPe98ei0KIZUHxNJlzgpTcz86RgqMMiHlWGZ2+qvi3MDHzZJP52g6u0+fQSE2I4Fs4vOFUNlv1oZ3eRlZ+3KRRY5U3MfreN5VMWZ5QUI+q0hitcIEzKebmmz5mi00TvhDPusd2xhunBd4o5CSOvVTtWDEb0tGc/mXf7PBH7vFrobiP2raTGmVt7pPqAqUjR1lgLFQki0qDzfGbs6024aeKfm+EznW+dAjaWCFC2sP66lr2neHVQaGWFI4raCMZhlj5mUgFxbS2KalxRwbsa2E8pzMJAall6nAryZpdOzZl6H0ACynIs8NWJiwG/R6Sda1rZRP6xIrVN8hmNvBVSPL9O4XsdhzP6skKdPUuD+pLKcX+HSNEAhLxxmw6KBYl2ocRaBWg+pCaUG4ElXsTToMEsM36wAPkKALXmYCBkTHwBvd+9kZ5MuOJA9/VWiCS9nUoS+DgTm06gSa1217GKMkDpBExnav73IIAKpKcB4+/b/k7HKqTEaGEbMOYXj8S+vXjUijbIAw307uO51N/dsNaeZ38BZE1iRtZtEhPHenCF4LuhatlahEwI1eWw08oOWPCSqjotg94qw/79ITlORGBoqfWGY077y4d5CYUUDakJSWM6K4H+ogarBEVBwPpj5sfXWb1IlQTX4ygVqBB9JJqOybVgaFuq26yZVC3MBzRNlpKalCLrSqWzpihQvn5zJLrYeTG10d+AQeE/d2s5PQ3XG/QDjkBMYfQKPLvYLs9TgIrBj4+yEnaRUVaNkOR5aMF6kI9hfaKhCfkapP0P8YEKnN2+rEhjT27553nAVbCV2zCOM5fOMfdz6HbkSA/cz/bqJrFU1ITOTcR4M5SRB6bgrLmep1VsF3B2WS304pH9c++SPBPxowj6PDzSZ8cWdgOT6i4eK9eloS2d7FLmtfh6Qaid98GiFI1xYZ07xgpYC+hzMgLediMovgZ/JKjeIuksCBtb/4oIYYBGNx13lPfmKQCPnnFQFkSeavsogDc3gBisY6Pp6qRCHV5I2I7elBBsPPUhQmQvo0DRFZ91AsEovDVPZubAW+dNjausNaih8sl8abUzCT82oIG9hdFS4tzC3pRXVbtHcdTWM5jhvPgcf1Ytvr1PEctxbKh434zSFJOKE0v6Vmg60SPaMdK3j8RQeE9YKOcNJy2C/09vT+y1itmTkNq4lMthrD2PRVPG32lVQoqA3GL6lU0w3df+tBhOSC2uxCDRmKQjbCDrVSDLxvWHtkv/oq7ol9HNbkLfkg39SCu9GTLEJaB+UoYBlIBMw/xKNaVyhb+3LBsISdKmuIjO1N5kx4oKFyjAuPfHm5Wm/UzE1QuqvrpqdUZDA8QDh66ELjhSkA0jI3PneglDhx1mQMn5A0U+XObmK6/EabeSCXr+2N4Ttl8meTMZx91z85tqAacDg/M0ki6rIKCYYAoHY6zesoocBPNbmPMZGVOal9G8ZTS0J7OafZWBVKj7go9U5AZyzcAPiBUqHIWszc4k3nGq5dhrecjQW8U+l1YWdFEukh13r1VD5LP5XiCqOht5R0qZ54ijce8Z6wZPvBEjJhdYyMTtnT7gANMphF3FnGyGwyKDmVMuX78hJJV56iUIwD+agIVwElqZO03wqxP/YSzrSoyVTveABppUa0Fjl826nknxf39Dq+3bYpb5VBH5MV2420xy/fi/6rWRxS+wgoDNirGltxiyC0SpEXfZ5iES7DwusE52qtX6wq30lRGGHjHv70zT2sCdVCb1kNaROwPxakutPf1WOf/bGyZRMmXKf0RbN2f7jZcf2SwlVd18AaxzlA1rKhncHkzaq2dEbYjGCsAVLZ2CURaLd0jUUReALmbHAfPNd2LP6P4F2YQTrESPjqlZl9itFH3M2SsntADknPMv4jSYMG9jxjhAGEoJtMhQIbWpjMdVcraeVbKqoqd5deEqMNopfceR29X68al6wAr9PWSBDYEh4jMygiLXTvpdZ7Bsj0tZ0RTtgKAPZYB69lofZwZcQXttEGI2K+nRPw+TKYKfhcIawTcM3KnoKZk7IXVff6MMnm01eL11GiB+GQ+Hembe+JjUyIV3YDR+1jAkJxKreK4tz4Z/qts1mY9wSsaYyC8eAoGJam2sqstrYUi1gg2b/xwvxmlSc2k8GsebYRGYJzPAXfELxmUMkt4FBcUIKdZbtoz4mybKX+cMlEmAQAfEal85wSMBZW4rDnNnCJPe1CfpW3zOJ3cfSTeskepLRu7QFLGK4ZzwaprqZSiO8bG8EzcqIMAQSutjIMJB48Kbb9pd+7qU4kg5/fV/lNETHGIShv27/Vf63io0ETQXXd9YJPwV69WekhkgWK8MJYXR6ZX6jCBKvRHTcQ+gcUqucYnS0jG2FiBaI4xDIwizzf+WOIGOzX6+dwY5XPGbYDApFG7AFr9gdugR44uZQtfxOw6pZY0DPWRrJHMnxoRLs9z2ZAPM05WjIpHGmHY7xJpUmGG+4ac3frbNpP2r+45SBW4VsSNOG94pN0SPHpC/RN0R7LzmiVoMmCGYSj+CRgI3THH7hCpUkws7Hp7ljnqnMysq5WRVbTIn5BRZR5Job2dIVDxLW84DczNeFGgUme//koCfwAIGxwtvquKoPFDgBrYH0gjgrGX1N5Bp4stBxr8Xg3h9Zt0S53EgkOd1UyzYS1BvOrXztLUGe0YIMioDvnTN1zWx/SVAxdqtjckzyjErtHN8sDMIY7q5cm7I3AmXh8DYA4akLpK/tmX/WjgnXe/Mbk+u7NLDOFuLv+GbR/mvbtRN9mIetrfDaFh6sNlTqBMbEmguwdEqjTwA3OrCtvBzSCp1IfZercTQEihCVj4KMBi6F6PxF2gIHJsheW5RKrpullU0cQQS4SQuT7SURzAzZaGRCtQLwb4kVd4Ngr5gJ09M4HCBfZz4NgCNAcvJrdlAqaBbb04VyvI/7a5i4lBy6KsNCPy5Fvu0ClTcZjbReZmY7PWJufzBF+CwID/3kOKgvzzWQKU/OwzX2ny+/H0N9H+UePnJOEi/mAnpEdO3AvOWcH9Luwk/t1K9XDhVXnip9bIiGcnyfsGI0ABZWbMjNh0QZ42/CWtLCEnnncpt4GhMkI0BKmRirHOqqPBMs5MFlNDCnYxtKhbYL6cnWe1XdlteZQ24lfQwqo8cSCzYBIpUHKWhcprUeAp9DKLJq8iv677ihJOx4flOybhJrOX1EIrxBN2FZkhV4D6QiIAklJFuXxc4p4SkzNtLEZ5rvKidASwF/owU8pnvGdqYcnYZntvw1s0nmaY+MjdBZ/8rZWU/wIxNfY9L8rRoPm6WHPIF1jxwpZdKGN+R8YBf/CbTTz8VAj6MsES8DHtE3vml0yGMbDUqFVqEFt81cqqN6my8//pkvdM/YnTig1B7GMYQB6T5NWHG16NWturECV6pfa5K0ST1SMA98LkFo2NwGd6F0q78c1hKTaH85ykHiGNA9X6tTkJIVGSg+j9yw5olWtcWusts3sXim710XFu56FpVGDP9m4oXtwVyYmersHjWCtfu4R74ek5zCaH+KvvwQkw28jAE9vmhMABZQfq5jU4tJTttoJmviSgmaYNryONgta7UlI1DpbCbOHroYwGPvm5OigkWEZw2PwyAMQmyFeFEsh0uOcw41WiW+lqXmZvX/5fyxwHkREVnKWLQ+69P0wjZOjcM6m6ix3CH7pK7BAr5/rLvfbUVuhgsKI8VM+Rz9sJCbxYQqoU4LRZVylPE4VtagDPlrqcJV2HaTltAwut7kmMbMnh0+zd+t4cNytonkMps+TZF9tNTBFiEop+BB+yVv/uc3A4Ki/q3Ngu8oRDlqg9Z7DUkFb3t9TgBKGttMn5XMD4jhHpVca1y0ZePbNfzrob2YVVBFj2YTg03y4mTDJmNh7YvHYL1rqYLQ4mIwnYtUo3hGZoDuJ4P2zgT0W4LOUmGEwbNYhaen3KBPa+eRIclE6hSSofJLqnslNIBIgq6LKMXbR8mA+VAls6d3R2NGjU3NM6A0MdaWZpVpSUEKM9n5/XWBCWmwNtMxDWSePpMOZHIuJOj3bj5dRpbOh84dlGa0qgUP8chcKRQy3TECPdwYXXJpuvYp+tDrji8gfhq5EPPvy4YtUtPTYR8mgEx82G49MCXlEcCa5SEeVWAgU8Z9BFpshbNdkg72/3GUEYCNBs9P0qEzNcsbBPowS9QPLDViuD6+LyG+uJIhwbavy/f9KsM69dlQio79KCLgFcWgxZHYmEXTHmAY5B5O6yYq21QoYYLWw2b9FgcohaIwIZvodboDt4CVik7Ox1YGYAshOLvu1Ri82Y0ZaCJU3AA7CyNXxtG5/eQE5RMARg8ouSQfqs+uDarW9PLBf3tDlNNZC3jnpqz8tCNuLT7Lveh4BE9ZIbsldQ+BgpLSyS6hcwdRvvtn6MYbedNyHYomImFlhq+3qLOIyqlYXxtHrpGH2RfnpcjoRd4ELNFfzROu6eCOnN7cetJV3+3e5EooZ9ESV1jWn6uvgYT3cpQ9lF2Vb+wKHVZfzid4NAGQq3t9oFkRD/tRh7/Y3f8NZ88MOILUJkmC7LVW3g5a8J5cVEUN7iVBhGkib7j46+hdkRPv/GeibNOGBA8owpA/JJ5go/bmxusIEqJ2bcXg53VIu4kThuH03mqn0VX7GS9+MSvcgE5/VdXCZM0zpYwe5RHM+flHr6RJt8zn5iyNWGJt6myD0+sYsk4iXkA0g9YespoB3CqoxiErPMWN6FQS6gLd48LlvIWYsORm1FbpHWs5Igp99LW4CCsY4btPBRjTFCvBY4megCFb7Y+xexdBvThmj0jOprl/a41dQZq8TjdvVvGxp05y0EjXLUL61QTEkiBC7emx3R0+DGFUfxoqiP2XsY+EJ4RU2uCjwxhSxujdaiPBSg4KH9RdwQPrV/8F4iFRmo0xkVCJx2sQM217Ye5Cyf+LoCuz8HNMn8xU6WdYzB024CBIuCdqasft0yFxCK3LgKUjSBjUVjcbD8x+g84XehOfWyySsBNSej7zvxJ8Fx32KtmK+BFbKkSc+EUrm4g17d8vGRjADxeC7pbS1/iPAD+nLYpP9x7cAR/KvRp3dXano/It7xm9oB/ig2iT2or7hwPvRj/OdzLV1LyETfIht2/kgINvykVMVPPrjt/zg8L75E79UTl5+9vrEJTDjfQQh3qfHCun75GAbDCF9SeKbMqscCS4OAprSfr46x621hk23ngU4a/IXL75z1kw83bZtXR+uI81W0QuS3aK5/LOOWW5AHSvfj54hk0hPEXqWB1WgtaK7+hFkrm/awg/OwGi4MEAOP0YmHLNWbKdnJe4wzO2ZEeI0GgnV7T22BVR////ysZTULFm/SXYfOk1wt9ZwyixhJ2fq+SRJ6T1jDGbQQzvX8gjsF0ISpBbvMF9r1HcI+ZtJywHgAdJAhm8LAuqiDRUiGslOgygljoEbnUwowCQnHUc+EHDDtc9jmTimk2+9XyLSoWJNBqGhYTOWCdJnfCg1GYVX48l3QjyhQ8S9XLM+F7Eb9vcvWvQqaqXihr12nzb/k+hOR5Nwpz/aDS+OXgMql14hAvd3Xd7xDfzLsdNdh1wUfsPlNQLphKKkfnTzvf5vKl3CjY9AbDQRUnDlPrqjvUcW/egx9kinCmMmgF5FBwenuKmB50XzbzYwmuJlPJE9jByrpKoru1Np569Vh8jAuwlWlwihtUTItit4jxJYJAetICqRySyl882n6WfUb3ncSXg14/7+VuIpWTzJxljYtW+gFCQL3elJvEuNTWIHKfgwANIZW7pqP/tP1DnoBuMfBjAZnFPF/0AYjTGzXzVvm5/dmmQhMqsxt47f2qQn872Pw/QbIW8be/spYgcnUswMlIhyOxPkQ/9li7RBPNh8K2+KDuNxBQnW9sIkNAo7OkuR1Zhbe6dRYO70+QPFhDZd3ovH2mgSvT76BEZR9Z53eTVSUhUmxqb6v6HpZryBMRkfqnG+r51glI8HZCEaDG3P8HOhQZePLlSJeuatkltYgAOUnrB+gWGS2HM65xv8beJpmLqpweT5W0ADqsGvu9fOa84zTaP2NsaqPrtp25Q5+hsvyCBkftiuEqctTptqRdp/2kHkMdua+sHRgXCO+B3kkIYTL19fP1Aaob48ruU7opsKNE4KQ1U9OhL047KWaPTmF4RhZirUP3TQuUMwyoGosA8jkMtavpM08gIyFMGglO1slHsoYNAIzaURLVoB7aBV9SChOMFjKm42uj39Cbl0+xZ1fRWYAksJDqfjo2s3TBjoBmOGxYOaqQwES7ly46/m2TiiTmM7TU+Ck/fqK4WW7U8pDcD7rBASXX5+ku2My6/NUSM3z4H3y8gD2jiDHHlfjiOiPYeqF2KRjFK5/dN9pHlPM5NQERBNrVQ4N3L4lMBBMuUBrUZXHLeptNev9SDSFELjrbR9sP87aOByRHm0WgRnkJr/LTZ6/nLydOY46+I6th7t9y65BE1/onk1EUCKhofuymq+M8dQ9vxTvObW6rGQZt3rW9e2CnoZeijoLtvojAUDTp8jjNC7XrA5iGVfrkOkGJuEcQ59m6pLgmELdh44xcmxo6Bt1zGA1vwgMhJ+SFWIXW618PWmlq28l+nFKVNijDApU+aR2AOA17gubsfTM0F5XxFAOD0zTxvI9vqTSlforZlRZQ6+nGkXcwHKshEi3nB4ZwuN4OlmMQKdoLcOqk+WwQR3QW3iSEFR2yKItFk4yQnoxWzn4uYCmr6LGPzrb2/sQKj2SbFb1NqPQexDDpktByk0IhLs8wNPOu9AJ5BeLunRav3exTMF8SsWXd947MfKiCR+9XxZlr24y4GEqC9mT4zOEHNRZehnIndtD8XOuHJCh4K5M4zAQD074c9mP7F1PJ0p14TEPXMQJALGUEYsBRSVlGLqu77RvnCUTqPYZDmLm4ezd/lErDqH9qvi1ieIQRxRHGNZS3XQsfxG9lYBu1tiOYXYUM0EdOsENNdzfCmN6I++yT/0rrUBz/8wH9URFgOmKxrapvRfLj7dSO5GBV2QKtkQJvWMETJJXUJ5fbQL+wOFC0FBe+PGXdBBqrzEiYiIPwx7EkD8CCV0jN1AMGHIP5EQuS/pUETRXBh5JZDkclhVb3F2m+b6XjzD9skmtApvSxam7sGyxD0rzpcjBoOB/3e1vvtyuWLaEqbnQL9o1y3FYOSIlcruWlAdma8zGhn46f9yXUfELmfVb3xAjCzetp49EzsFAwh/vjcHHMDCqkPcix6CwXf1Fj2d9xKxreRZMbYT7Q0tlMelTdWIoH/UiXqU/78yI3i8jwywImYpNX2GNpcP5VdsAIZ3cbpVxIPeWJZVcYtVGOaGrq3amP/F/3pQ8iAi6JngXsBdkjWK5CGNa5bDR98OqMjRrAQkuqFNTGm4v9FwN9j43KcQYvl75w1tOFicnsxfwdQrCFEbxsK4fkzEiamONIQAuJQgO5SnFnQiu901flwJmo9tvG+fg3ZZMhpn8yB3qbS9EZtAohH2w4/tIQz7+nNK+VxgniBj3LpBx2FQjenrZbhwq5hGQwUcfZAvME/IJoozc/AscDBVRYkwGX9Z7veH29izgUzGnQpyxQ7hQbXgSTSAdOWeTlilZDRoOwQRxBF1bLGEp6i2u/wEkOMnpIoXEqIWPQS+BTtSoQnxRqhfouGFUzNlS6W1Zmfa/qJOsJeZ0pxz/Y8zVAeEiHFiy0nvMHOI97c9k/CKQ1buchQgyqNL0mbnu4ca98QrL5GAFjozUMgivPbYes+Z0NMvKgC2uxlX37JT3cY4m6BnYAjrJ6u6aowMA8gk0oOtxVeEEJv2ksNF6mKlKH6I8D9EFyTo+uNl/Zz2gOD+z2Xud9f3iUFJJFrkyRx60jPMu0abGkCN0SEJIiPHhtbl9S6RZs5cQh+0gnE5F1D1gjjWRIVQDA1ODLxcOkiOJe0Qro2jP7eJ/yLUR0yzM5rciN8JKJhZ1cWxn39BB+owVK++DSO1vMIkVBSSGq3j8sgE8kdFNaoTzQTO4JRr1nV1R+sAO/2BPB6kPSiUYdfFf7/c17pmt3DqQixZsAzCGn6DAyetjvNZgEM4D17lpsZuaJI0a+mERaAVf0Ev2qkS3Sn9T7Vh76MJMgYK0kbieR0JNo9efEP1L+XlIMkyk3nEORWjGSY6CHpEti+fWz9Yrarj3YZNDaU8YagTYDuf0WTUmTTacWRkETtKzMNrrcBBviQ17ZyM6ERReZM8CGNZkUwLTZBGU7g5vMr//SGVeR5gkBYKCFrv/RJcPsPsNwpBckalSpxHFhLw6OYBq5BSTbNZ4OYl0xmnszpqr4l11ELPYQ8r8lDvpuatNwz+4wRjIueQ1pMSABoXs57MytxGNX31GqYFHFOsK7YqSF7ldV+SHr5va05KqGbkIw28g+HqiPJLLvjOfwgY3lnmb5s6rAfMaQ7JI/fJiA9et8UtTrhl+WMQz1JcxJ+acQlF37gzZ2KXBBTcAwY6hpjPmFiXz6kcE/yHFx2LogT+ijCA0vO24dYyiczk1UBI9HtY7+GI+G+zB7EOL+08/w+RXHygZ38yDtdzu3kN/Q5XQBLjr/2F0VfD2r0cqqwbmpZqWKmglACdZb5GzsHvf////////////////////////////7GIYCToBbmv9KSN0ysTziRVz+/tsu1n2MvY0/J9Df9rJzr5M/y/0v+SSTaV5FnloPrB85ecp4uKt60qHW+gyBhpBmqUu8KcrLitUGgonLf2LqMc4kOto+zk4Jg6Mf32DYLPUKS/PP79Ed5IsJ9TN5BVde2kPlJLXxLoivPJq7mqhp/d8L26Be6Fyceiwwh1jtiRhgVMrMPUj2cTJCNqijjGauJ+D5b5zGcRqFPiCHGm/kBJNl8c0fgizMNa7lCDstguxFoc7mS+TQwvMnwB3gL7i9q5bK4yLOrdFsgJ702T4MT4mzy/pU1EJDx6+nhHYUZy7l/RZND9ZB5/topoy2dNdfrWtqpy7uVsfmVGhvxphcCrmGAJcsRK+Y4ZcHdMa7cF/IZmcSRLciC/H0NFEovX9I60lVwwDASlhOH7jpOVZX9m89CihUsDQIA1CzgEeE8nDNEQ6EGFEKL9JkHytUSf6tJg26Mmmhu/rgiIZ4wbXC7iLvNT17A/Ry/JldMYdIhfl49NzGna3npl4hMAVkhfHS4Iwsr1VoUiYJaT2MOWkFVOfZdbPOK8okBG0jJtibp4oou816D515VnqbxmPDqsdalEbNTEtKYo1ncsMOJj74LviLmESMsN3s61H1J7sXrUkEZdDfqGZiarr4bRSHosyyg4M6ofmXwnqmf1DeVAIcBMHy/4wXafrbvby/69Nc5D9l+bqXNO3Ez5xviQqu0O+KZexXK1ee1XoDdHD7Xr6BV3C/EFS2eoJf9b+tThfNyutkcU3iAgUubKPyZkI6mzry0T+77O2/ChGvlAlsA4v1EPF0QS9Nxeq47fnaILyn3bZ96+2yNA3/Ycz1UrqZZXWkY87VtcLSGMAjSVlKPyzhzelzTVu5gpuxECtMiDgHnEKLcqa+ZzANee3yZ+z+zNTQ8fdfiYrUo3FgFuZmh0PI31JxGIafQdgXNuQRF+6niPA9czcNZxH6hURLyEWUwiv/mwNwctVL7D/vwxdd0z6eHqp4ZsldIvhcJfFKMNk4uJFskHgWyQBwEaLFarvn3aPGhgjLqqWuu/ZPLwo6n3hiuocYdBbMMDA1zqOZstOQt9iRsk4O/ojh/rYCaOQQoCoJs6AKtDqF1eGlOHBu6seUkDxCiyoxc9f4Sqq+VTgZsrhXRlb7PdiJvR48sbKlgs9j8a4HGKO8PZrn7ruYFHmTv/bJeP84srzaRUkHviQCZvJXI0ZiuMfG6QHBWn6EmzZbn4zuEu29xUOVNhaJxoweuh5LgCd1aD7lDXUrwNVszfEQ017WfkuDOyvdzNwhnNoJ0rKRZObB2LRezxs32mLATlD3gSvPImL0icDeo0+dCL+9KQfnW76crSooVFauqcFgKaO8MYQGn8xTtsab4CmJjnZMI/I+/aWs92aYEO7f6UAH3ZaK3pIBr0nmozAc+SSUAXZz8t438saAb0VT7ugyui/i8e7mPAJbdCiw1eyzeLWCrqTtu9Qotvymje0wCbvEJxtNZBqA6IyVGpVGdXwiIyJZ+GHjEZDmFZNRaf2+Tah4aLGy/KSqayYZEI/+Y/C2TFkuDwccXXp7tlmUzXiA=;" vertex="1" parent="1">
                    <mxGeometry x="1340" y="400" width="260" height="131.08" as="geometry"/>
                </mxCell>
                <mxCell id="1qyOkG9RnoyExfpBVUXw-16" value="" style="edgeStyle=none;html=1;fontSize=13;" edge="1" parent="1" source="1qyOkG9RnoyExfpBVUXw-18" target="1qyOkG9RnoyExfpBVUXw-20">
                    <mxGeometry relative="1" as="geometry"/>
                </mxCell>
                <mxCell id="1qyOkG9RnoyExfpBVUXw-17" value="" style="edgeStyle=none;html=1;fontSize=10;exitX=0.5;exitY=1;exitDx=0;exitDy=0;entryX=0.5;entryY=0;entryDx=0;entryDy=0;" edge="1" parent="1" source="1qyOkG9RnoyExfpBVUXw-18" target="1qyOkG9RnoyExfpBVUXw-30">
                    <mxGeometry relative="1" as="geometry">
                        <mxPoint x="1195" y="805" as="targetPoint"/>
                    </mxGeometry>
                </mxCell>
                <mxCell id="1qyOkG9RnoyExfpBVUXw-18" value="Is Header and Payload &lt;br&gt;of same type?&lt;br&gt;&lt;br&gt;by MIME sniffing" style="rhombus;whiteSpace=wrap;html=1;fontSize=13;fillColor=#33001A;fillStyle=solid;strokeWidth=2;" vertex="1" parent="1">
                    <mxGeometry x="1077.5" y="575" width="235" height="180" as="geometry"/>
                </mxCell>
                <mxCell id="1qyOkG9RnoyExfpBVUXw-19" value="" style="edgeStyle=none;html=1;fontSize=10;entryX=1;entryY=0.5;entryDx=0;entryDy=0;" edge="1" parent="1" source="1qyOkG9RnoyExfpBVUXw-20" target="1qyOkG9RnoyExfpBVUXw-30">
                    <mxGeometry relative="1" as="geometry">
                        <mxPoint x="1240" y="845" as="targetPoint"/>
                        <Array as="points">
                            <mxPoint x="1440" y="845"/>
                        </Array>
                    </mxGeometry>
                </mxCell>
                <mxCell id="1qyOkG9RnoyExfpBVUXw-20" value="MIME sniffing&amp;nbsp;&lt;br&gt;&lt;br&gt;If not present or unidentifiable&lt;br&gt;consider it as html" style="whiteSpace=wrap;html=1;fontSize=13;fillColor=#33001A;fillStyle=solid;strokeWidth=2;" vertex="1" parent="1">
                    <mxGeometry x="1372" y="625" width="140" height="80" as="geometry"/>
                </mxCell>
                <mxCell id="1qyOkG9RnoyExfpBVUXw-21" value="Yes" style="text;html=1;align=center;verticalAlign=middle;resizable=0;points=[];autosize=1;strokeColor=none;fillColor=none;fontSize=13;" vertex="1" parent="1">
                    <mxGeometry x="1135" y="755" width="40" height="30" as="geometry"/>
                </mxCell>
                <mxCell id="1qyOkG9RnoyExfpBVUXw-22" value="No" style="text;html=1;align=center;verticalAlign=middle;resizable=0;points=[];autosize=1;strokeColor=none;fillColor=none;fontSize=13;" vertex="1" parent="1">
                    <mxGeometry x="1310" y="630" width="40" height="30" as="geometry"/>
                </mxCell>
                <mxCell id="1qyOkG9RnoyExfpBVUXw-23" value="&lt;font style=&quot;font-size: 10px;&quot;&gt;&lt;a href=&quot;https://developer.mozilla.org/docs/Web/HTTP/Basics_of_HTTP/MIME_types&quot; style=&quot;box-sizing: border-box; color: var(--link-color, var(--color-primary)); text-decoration-skip-ink: auto; background-color: rgba(var(--link-rgb-background, var(--rgb-primary)),0.08); font-family: system-ui, -apple-system, BlinkMacSystemFont, &amp;quot;Segoe UI&amp;quot;, Roboto, Oxygen, Ubuntu, Cantarell, &amp;quot;Open Sans&amp;quot;, &amp;quot;Helvetica Neue&amp;quot;, sans-serif; text-align: start;&quot;&gt;MIME Type sniffing&lt;/a&gt;&lt;span style=&quot;color: rgb(32, 33, 36); font-family: system-ui, -apple-system, BlinkMacSystemFont, &amp;quot;Segoe UI&amp;quot;, Roboto, Oxygen, Ubuntu, Cantarell, &amp;quot;Open Sans&amp;quot;, &amp;quot;Helvetica Neue&amp;quot;, sans-serif; text-align: start; background-color: rgb(255, 255, 255);&quot;&gt;&amp;nbsp;&lt;/span&gt;&lt;/font&gt;" style="html=1;strokeWidth=1;shadow=0;dashed=0;shape=mxgraph.ios7ui.url;fillColor=#e0e0e0;strokeColor=#c0c0c0;buttonText=;strokeColor2=#222222;fontColor=#222222;fontSize=8;spacingTop=2;align=center;fillStyle=solid;" vertex="1" parent="1">
                    <mxGeometry x="1385" y="575" width="127" height="30" as="geometry"/>
                </mxCell>
                <mxCell id="1qyOkG9RnoyExfpBVUXw-24" value="IF not HTML (ZIP PDF etc)&lt;br&gt;&lt;br&gt;DOWNLOAD FILE" style="whiteSpace=wrap;html=1;fontSize=13;fillColor=#0E331B;fillStyle=solid;strokeWidth=2;" vertex="1" parent="1">
                    <mxGeometry x="900" y="955" width="145" height="70" as="geometry"/>
                </mxCell>
                <mxCell id="1qyOkG9RnoyExfpBVUXw-25" value="" style="edgeStyle=none;html=1;fontSize=10;" edge="1" parent="1" source="1qyOkG9RnoyExfpBVUXw-26" target="1qyOkG9RnoyExfpBVUXw-27">
                    <mxGeometry relative="1" as="geometry"/>
                </mxCell>
                <mxCell id="1qyOkG9RnoyExfpBVUXw-26" value="if Html" style="whiteSpace=wrap;html=1;fontSize=13;fillColor=#33001A;fillStyle=solid;strokeWidth=2;" vertex="1" parent="1">
                    <mxGeometry x="1340" y="960" width="120" height="60" as="geometry"/>
                </mxCell>
                <mxCell id="1qyOkG9RnoyExfpBVUXw-27" value="Rendering Process" style="whiteSpace=wrap;html=1;fontSize=13;fillColor=#073303;fillStyle=solid;strokeWidth=2;" vertex="1" parent="1">
                    <mxGeometry x="1512" y="960" width="120" height="60" as="geometry"/>
                </mxCell>
                <mxCell id="1qyOkG9RnoyExfpBVUXw-28" value="&lt;font style=&quot;font-size: 8px;&quot;&gt;&lt;span style=&quot;color: rgb(32, 33, 36); font-family: system-ui, -apple-system, BlinkMacSystemFont, &amp;quot;Segoe UI&amp;quot;, Roboto, Oxygen, Ubuntu, Cantarell, &amp;quot;Open Sans&amp;quot;, &amp;quot;Helvetica Neue&amp;quot;, sans-serif; text-align: start; background-color: rgb(255, 255, 255);&quot;&gt;&amp;nbsp;&lt;/span&gt;&lt;a href=&quot;https://cs.chromium.org/chromium/src/net/base/mime_sniffer.cc?sq=package:chromium&amp;amp;dr=CS&amp;amp;l=5&quot; style=&quot;box-sizing: border-box; color: var(--link-color, var(--color-primary)); text-decoration-skip-ink: auto; font-family: system-ui, -apple-system, BlinkMacSystemFont, &amp;quot;Segoe UI&amp;quot;, Roboto, Oxygen, Ubuntu, Cantarell, &amp;quot;Open Sans&amp;quot;, &amp;quot;Helvetica Neue&amp;quot;, sans-serif; text-align: start; background-color: rgb(255, 255, 255);&quot;&gt;More about this process in official docs&lt;/a&gt;&lt;span style=&quot;color: rgb(32, 33, 36); font-family: system-ui, -apple-system, BlinkMacSystemFont, &amp;quot;Segoe UI&amp;quot;, Roboto, Oxygen, Ubuntu, Cantarell, &amp;quot;Open Sans&amp;quot;, &amp;quot;Helvetica Neue&amp;quot;, sans-serif; text-align: start; background-color: rgb(255, 255, 255);&quot;&gt;.&amp;nbsp;&lt;/span&gt;&lt;/font&gt;" style="html=1;strokeWidth=1;shadow=0;dashed=0;shape=mxgraph.ios7ui.url;fillColor=#e0e0e0;strokeColor=#c0c0c0;buttonText=;strokeColor2=#222222;fontColor=#222222;fontSize=8;spacingTop=2;align=center;fillStyle=solid;" vertex="1" parent="1">
                    <mxGeometry x="1530" y="640" width="160" height="35" as="geometry"/>
                </mxCell>
                <mxCell id="1qyOkG9RnoyExfpBVUXw-29" value="" style="edgeStyle=none;html=1;fontSize=12;" edge="1" parent="1" source="1qyOkG9RnoyExfpBVUXw-30" target="1qyOkG9RnoyExfpBVUXw-34">
                    <mxGeometry relative="1" as="geometry"/>
                </mxCell>
                <mxCell id="1qyOkG9RnoyExfpBVUXw-30" value="&lt;span style=&quot;font-size: 12px;&quot;&gt;Safe Browsing checks&lt;br&gt;Show Alert if known malacious site, or domain&lt;br&gt;&lt;/span&gt;" style="rounded=1;whiteSpace=wrap;html=1;strokeWidth=2;fillWeight=4;hachureGap=8;hachureAngle=45;fillColor=#1ba1e2;sketch=1;fillStyle=solid;fontSize=8;" vertex="1" parent="1">
                    <mxGeometry x="1100" y="805" width="190" height="80" as="geometry"/>
                </mxCell>
                <mxCell id="1qyOkG9RnoyExfpBVUXw-31" value="After safe browsing Check&lt;br&gt;&lt;br&gt;Browser assgins this html page to the renderer process&lt;br&gt;&lt;br&gt;after confirmation from the rederer process of starting the loading&lt;br&gt;&lt;br&gt;Navigation gets completed" style="whiteSpace=wrap;html=1;shape=mxgraph.basic.document;fillStyle=solid;strokeWidth=2;fontSize=12;fillColor=#333300;" vertex="1" parent="1">
                    <mxGeometry x="1490" y="720" width="180" height="200" as="geometry"/>
                </mxCell>
                <mxCell id="1qyOkG9RnoyExfpBVUXw-32" value="" style="edgeStyle=none;html=1;fontSize=12;" edge="1" parent="1" source="1qyOkG9RnoyExfpBVUXw-34" target="1qyOkG9RnoyExfpBVUXw-26">
                    <mxGeometry relative="1" as="geometry"/>
                </mxCell>
                <mxCell id="1qyOkG9RnoyExfpBVUXw-33" value="" style="edgeStyle=none;html=1;fontSize=12;" edge="1" parent="1" source="1qyOkG9RnoyExfpBVUXw-34" target="1qyOkG9RnoyExfpBVUXw-24">
                    <mxGeometry relative="1" as="geometry"/>
                </mxCell>
                <mxCell id="1qyOkG9RnoyExfpBVUXw-34" value="&lt;font size=&quot;1&quot;&gt;Update the UI&lt;br&gt;(Address Bar, security icons )&lt;br&gt;&lt;br&gt;Records site url in history&amp;nbsp;&lt;br&gt;for forward backbard naviagtion features&lt;br&gt;&lt;/font&gt;" style="ellipse;whiteSpace=wrap;html=1;fontSize=8;fillColor=#33001a;rounded=1;strokeWidth=2;fillWeight=4;hachureGap=8;hachureAngle=45;sketch=1;fillStyle=solid;" vertex="1" parent="1">
                    <mxGeometry x="1106.75" y="920" width="176.5" height="140" as="geometry"/>
                </mxCell>
            </root>
        </mxGraphModel>
    </diagram>
    <diagram id="_T5FbkSaDuRFFeKylNWQ" name="toDiffrentSite">
        <mxGraphModel dx="-698" dy="817" grid="0" gridSize="10" guides="1" tooltips="1" connect="1" arrows="1" fold="1" page="0" pageScale="1" pageWidth="850" pageHeight="1100" math="0" shadow="0">
            <root>
                <mxCell id="0"/>
                <mxCell id="1" parent="0"/>
                <mxCell id="NP_sAgIm4_HPESCG9liH-1" value="&lt;span style=&quot;font-size: 18px;&quot;&gt;Navigating to a Different site&lt;/span&gt;" style="text;html=1;align=center;verticalAlign=middle;resizable=0;points=[];autosize=1;strokeColor=none;fillColor=#33001A;fillStyle=solid;strokeWidth=2;" vertex="1" parent="1">
                    <mxGeometry x="2034" y="30" width="244" height="34" as="geometry"/>
                </mxCell>
                <mxCell id="NP_sAgIm4_HPESCG9liH-2" value="" style="edgeStyle=none;html=1;fontSize=13;entryX=0;entryY=0.5;entryDx=0;entryDy=0;" edge="1" parent="1" source="NP_sAgIm4_HPESCG9liH-3" target="NP_sAgIm4_HPESCG9liH-5">
                    <mxGeometry relative="1" as="geometry">
                        <mxPoint x="2046" y="172" as="targetPoint"/>
                        <Array as="points">
                            <mxPoint x="1951" y="171"/>
                        </Array>
                    </mxGeometry>
                </mxCell>
                <mxCell id="NP_sAgIm4_HPESCG9liH-3" value="Input from UI&lt;br&gt;(www.website.com)" style="whiteSpace=wrap;html=1;fillStyle=solid;strokeWidth=2;fontSize=13;fillColor=#33001A;" vertex="1" parent="1">
                    <mxGeometry x="1759" y="142" width="120" height="60" as="geometry"/>
                </mxCell>
                <mxCell id="NP_sAgIm4_HPESCG9liH-4" value="" style="edgeStyle=none;html=1;fontSize=12;" edge="1" parent="1" source="NP_sAgIm4_HPESCG9liH-5">
                    <mxGeometry relative="1" as="geometry">
                        <mxPoint x="2276" y="172" as="targetPoint"/>
                    </mxGeometry>
                </mxCell>
                <mxCell id="NP_sAgIm4_HPESCG9liH-5" value="&lt;span style=&quot;font-size: 12px;&quot;&gt;BeforeUnload EVENT&lt;br&gt;&lt;br&gt;(It can create &quot;LEAVE THIS SITE?&quot;)&lt;br&gt;&lt;/span&gt;" style="rounded=1;whiteSpace=wrap;html=1;strokeWidth=2;fillWeight=4;hachureGap=8;hachureAngle=45;fillColor=#1ba1e2;sketch=1;fillStyle=solid;fontSize=8;" vertex="1" parent="1">
                    <mxGeometry x="1971" y="132" width="190" height="80" as="geometry"/>
                </mxCell>
                <mxCell id="NP_sAgIm4_HPESCG9liH-6" value="REST SAME AS SIMPLE NAVIGATION" style="whiteSpace=wrap;html=1;fillStyle=solid;strokeWidth=2;fontSize=13;fillColor=#33001A;" vertex="1" parent="1">
                    <mxGeometry x="2278" y="142" width="120" height="60" as="geometry"/>
                </mxCell>
                <mxCell id="NP_sAgIm4_HPESCG9liH-7" value="&lt;span style=&quot;font-size: 18px;&quot;&gt;Service Worker&lt;/span&gt;" style="text;html=1;align=center;verticalAlign=middle;resizable=0;points=[];autosize=1;strokeColor=none;fillColor=#33001A;fillStyle=solid;strokeWidth=2;" vertex="1" parent="1">
                    <mxGeometry x="1838" y="371" width="141" height="34" as="geometry"/>
                </mxCell>
                <mxCell id="NP_sAgIm4_HPESCG9liH-8" value="" style="edgeStyle=none;html=1;fontFamily=Helvetica;fontSize=12;" edge="1" parent="1" source="NP_sAgIm4_HPESCG9liH-9" target="NP_sAgIm4_HPESCG9liH-13">
                    <mxGeometry relative="1" as="geometry"/>
                </mxCell>
                <mxCell id="NP_sAgIm4_HPESCG9liH-9" value="Network Thread" style="whiteSpace=wrap;html=1;fillStyle=solid;strokeWidth=2;fontSize=13;fillColor=#33001A;" vertex="1" parent="1">
                    <mxGeometry x="1791" y="522" width="120" height="60" as="geometry"/>
                </mxCell>
                <mxCell id="NP_sAgIm4_HPESCG9liH-10" value="&lt;ul style=&quot;&quot;&gt;&lt;li&gt;Service worker is a way to write network proxy in your application code;&lt;/li&gt;&lt;li&gt;&lt;span style=&quot;background-color: initial;&quot;&gt;&amp;nbsp;allowing web developers to have more control over what to cache locally and when to get new data from the network.&lt;/span&gt;&lt;/li&gt;&lt;li&gt;If service worker is set to load the page from the cache, there is no need to request the data from the network.&lt;br&gt;&lt;/li&gt;&lt;li&gt;It is JS code that runs in renderer process&lt;/li&gt;&lt;/ul&gt;" style="text;whiteSpace=wrap;html=1;fontSize=12;fontFamily=Helvetica;" vertex="1" parent="1">
                    <mxGeometry x="2039" y="322" width="429" height="156" as="geometry"/>
                </mxCell>
                <mxCell id="NP_sAgIm4_HPESCG9liH-11" value="" style="edgeStyle=none;html=1;fontFamily=Helvetica;fontSize=12;entryX=0;entryY=0.5;entryDx=0;entryDy=0;" edge="1" parent="1" source="NP_sAgIm4_HPESCG9liH-13" target="NP_sAgIm4_HPESCG9liH-15">
                    <mxGeometry relative="1" as="geometry">
                        <mxPoint x="2254" y="552" as="targetPoint"/>
                    </mxGeometry>
                </mxCell>
                <mxCell id="NP_sAgIm4_HPESCG9liH-12" value="" style="edgeStyle=none;html=1;fontFamily=Helvetica;fontSize=12;" edge="1" parent="1" source="NP_sAgIm4_HPESCG9liH-13" target="NP_sAgIm4_HPESCG9liH-18">
                    <mxGeometry relative="1" as="geometry"/>
                </mxCell>
                <mxCell id="NP_sAgIm4_HPESCG9liH-13" value="&lt;div style=&quot;&quot;&gt;&lt;span style=&quot;background-color: initial; font-size: 12px;&quot;&gt;Is domain registered in service worker scopes&lt;/span&gt;&lt;/div&gt;" style="rhombus;whiteSpace=wrap;html=1;fontSize=13;fillColor=#33001A;fillStyle=solid;strokeWidth=2;align=center;" vertex="1" parent="1">
                    <mxGeometry x="1996" y="478" width="160" height="144" as="geometry"/>
                </mxCell>
                <mxCell id="NP_sAgIm4_HPESCG9liH-14" value="No" style="text;html=1;align=center;verticalAlign=middle;resizable=0;points=[];autosize=1;strokeColor=none;fillColor=none;fontSize=12;fontFamily=Helvetica;" vertex="1" parent="1">
                    <mxGeometry x="2186" y="525.45" width="33" height="26" as="geometry"/>
                </mxCell>
                <mxCell id="NP_sAgIm4_HPESCG9liH-15" value="Load data from server" style="whiteSpace=wrap;html=1;shadow=0;labelBackgroundColor=none;fillStyle=solid;strokeWidth=2;fontFamily=Helvetica;fontSize=12;fillColor=#1ba1e2;" vertex="1" parent="1">
                    <mxGeometry x="2242" y="522" width="120" height="60" as="geometry"/>
                </mxCell>
                <mxCell id="NP_sAgIm4_HPESCG9liH-16" value="" style="edgeStyle=none;html=1;fontFamily=Helvetica;fontSize=12;" edge="1" parent="1" source="NP_sAgIm4_HPESCG9liH-18" target="NP_sAgIm4_HPESCG9liH-20">
                    <mxGeometry relative="1" as="geometry"/>
                </mxCell>
                <mxCell id="NP_sAgIm4_HPESCG9liH-17" style="edgeStyle=none;html=1;entryX=0;entryY=1;entryDx=0;entryDy=0;fontFamily=Helvetica;fontSize=12;" edge="1" parent="1" source="NP_sAgIm4_HPESCG9liH-18" target="NP_sAgIm4_HPESCG9liH-15">
                    <mxGeometry relative="1" as="geometry">
                        <Array as="points">
                            <mxPoint x="2224" y="722"/>
                        </Array>
                    </mxGeometry>
                </mxCell>
                <mxCell id="NP_sAgIm4_HPESCG9liH-18" value="UI Thread finds renderer process&lt;br&gt;&lt;br&gt;It execute service worker code" style="whiteSpace=wrap;html=1;fontSize=13;fillColor=#33001A;fillStyle=solid;strokeWidth=2;" vertex="1" parent="1">
                    <mxGeometry x="1998" y="696" width="156" height="87" as="geometry"/>
                </mxCell>
                <mxCell id="NP_sAgIm4_HPESCG9liH-19" value="Yes" style="text;html=1;align=center;verticalAlign=middle;resizable=0;points=[];autosize=1;strokeColor=none;fillColor=none;fontSize=12;fontFamily=Helvetica;" vertex="1" parent="1">
                    <mxGeometry x="2019.5" y="645.8900000000001" width="38" height="26" as="geometry"/>
                </mxCell>
                <mxCell id="NP_sAgIm4_HPESCG9liH-20" value="Load from cache" style="whiteSpace=wrap;html=1;shadow=0;labelBackgroundColor=none;fillStyle=solid;strokeWidth=2;fontFamily=Helvetica;fontSize=12;fillColor=#1ba1e2;" vertex="1" parent="1">
                    <mxGeometry x="2255" y="710" width="120" height="60" as="geometry"/>
                </mxCell>
                <mxCell id="NP_sAgIm4_HPESCG9liH-21" value="&lt;span style=&quot;font-size: 18px;&quot;&gt;Navigation preload&lt;/span&gt;" style="text;html=1;align=center;verticalAlign=middle;resizable=0;points=[];autosize=1;strokeColor=none;fillColor=#33001A;fillStyle=solid;strokeWidth=2;" vertex="1" parent="1">
                    <mxGeometry x="1743" y="859" width="168" height="34" as="geometry"/>
                </mxCell>
                <mxCell id="NP_sAgIm4_HPESCG9liH-22" value="&lt;font style=&quot;font-size: 14px;&quot;&gt;Network request and Service Worker Startup is Done in Parallel&lt;/font&gt;" style="text;html=1;align=center;verticalAlign=middle;resizable=0;points=[];autosize=1;strokeColor=none;fillColor=none;fontSize=12;fontFamily=Helvetica;" vertex="1" parent="1">
                    <mxGeometry x="1830" y="920" width="412" height="29" as="geometry"/>
                </mxCell>
            </root>
        </mxGraphModel>
    </diagram>
</mxfile>